G04 Layer: TopLayer*
G04 EasyEDA v6.4.12, 2021-01-10T11:05:15--5:00*
G04 3145a8addab9457ba1f20b0dac4bbc5f,47ca9d6388974ffcabec7368213608ff,10*
G04 Gerber Generator version 0.2*
G04 Scale: 100 percent, Rotated: No, Reflected: No *
G04 Dimensions in inches *
G04 leading zeros omitted , absolute positions ,3 integer and 6 decimal *
%FSLAX36Y36*%
%MOIN*%

%ADD11C,0.0150*%
%ADD12C,0.0250*%
%ADD13C,0.0200*%
%ADD14C,0.0400*%
%ADD15C,0.0800*%
%ADD16R,0.0492X0.0276*%
%ADD17R,0.0472X0.0551*%
%ADD18R,0.0551X0.0472*%
%ADD20R,0.1063X0.0472*%
%ADD21R,0.0472X0.0748*%
%ADD22R,0.0394X0.0433*%
%ADD23R,0.0433X0.0394*%
%ADD24R,0.0354X0.0315*%
%ADD25C,0.0472*%
%ADD26C,0.0600*%
%ADD29C,0.0787*%
%ADD30R,0.0709X0.0709*%
%ADD31C,0.0709*%
%ADD32R,0.1024X0.1024*%
%ADD33C,0.1024*%
%ADD34C,0.0591*%
%ADD36C,0.0740*%
%ADD37C,0.0630*%
%ADD38C,0.0984*%
%ADD39C,0.0472*%
%ADD40C,0.0512*%
%ADD41R,0.1102X0.1102*%
%ADD42C,0.1102*%
%ADD43C,0.0669*%

%LPD*%
G36*
X5017240Y720960D02*
G01*
X4985440Y689120D01*
X5010900Y684900D01*
X5021500Y695500D01*
G37*
G36*
X4967420Y1154920D02*
G01*
X4946440Y1139900D01*
X4946460Y1124900D01*
X4967480Y1109920D01*
G37*
G36*
X5007180Y1154920D02*
G01*
X5007120Y1109920D01*
X5028140Y1124900D01*
X5028160Y1139900D01*
G37*
G36*
X4626540Y753240D02*
G01*
X4601080Y749000D01*
X4632920Y717180D01*
X4637140Y742640D01*
G37*
G36*
X4579380Y1166620D02*
G01*
X4568780Y1156020D01*
X4573020Y1130560D01*
X4604840Y1162400D01*
G37*
G36*
X4622840Y1154920D02*
G01*
X4622780Y1109920D01*
X4643800Y1124900D01*
X4643820Y1139900D01*
G37*
G36*
X5135240Y741580D02*
G01*
X5135280Y696580D01*
X5150500Y711600D01*
X5150480Y726600D01*
G37*
G36*
X5095540Y1154920D02*
G01*
X5074560Y1139900D01*
X5074580Y1124900D01*
X5095600Y1109920D01*
G37*
G36*
X5273480Y720939D02*
G01*
X5241660Y689120D01*
X5267100Y684880D01*
X5277720Y695500D01*
G37*
G36*
X5219960Y1166640D02*
G01*
X5209360Y1156040D01*
X5213579Y1130580D01*
X5245420Y1162400D01*
G37*
G36*
X2472500Y2848240D02*
G01*
X2453420Y2823440D01*
X2506580Y2823440D01*
X2487500Y2848240D01*
G37*
G36*
X2244640Y2802220D02*
G01*
X2231760Y2780020D01*
X2260040Y2751740D01*
X2282220Y2764640D01*
G37*
G36*
X2272500Y2548240D02*
G01*
X2253420Y2523440D01*
X2306580Y2523440D01*
X2287500Y2548240D01*
G37*
G36*
X2553420Y2476560D02*
G01*
X2560000Y2451760D01*
X2600000Y2451760D01*
X2606580Y2476560D01*
G37*
G36*
X1565200Y2611340D02*
G01*
X1547860Y2585600D01*
X1553060Y2570600D01*
X1582600Y2561120D01*
G37*
G36*
X1582520Y2988860D02*
G01*
X1553000Y2979300D01*
X1547840Y2964300D01*
X1565240Y2938600D01*
G37*
G36*
X1630320Y741340D02*
G01*
X1613000Y715600D01*
X1618200Y700600D01*
X1647740Y691120D01*
G37*
G36*
X1684600Y750480D02*
G01*
X1684600Y697320D01*
X1709420Y716400D01*
X1709420Y731400D01*
G37*
G36*
X1647660Y1118860D02*
G01*
X1618140Y1109300D01*
X1612980Y1094300D01*
X1630360Y1068600D01*
G37*
G36*
X1690000Y1125500D02*
G01*
X1658959Y1121460D01*
X1696540Y1083860D01*
X1700600Y1114900D01*
G37*
G36*
X1901560Y750480D02*
G01*
X1876759Y731400D01*
X1876759Y716400D01*
X1901560Y697320D01*
G37*
G36*
X2613900Y207100D02*
G01*
X2576300Y169540D01*
X2607320Y165479D01*
X2617919Y176080D01*
G37*
G36*
X2736000Y253160D02*
G01*
X2721000Y253140D01*
X2701940Y228340D01*
X2755100Y228359D01*
G37*
G36*
X2160440Y189500D02*
G01*
X2109260Y175180D01*
X2133260Y156140D01*
X2149820Y160780D01*
G37*
G36*
X5133900Y1938600D02*
G01*
X5096300Y1901040D01*
X5127320Y1896980D01*
X5137940Y1907580D01*
G37*
G36*
X5127320Y1613620D02*
G01*
X5096300Y1609560D01*
X5133900Y1572000D01*
X5137940Y1603020D01*
G37*
G36*
X5063160Y1576440D02*
G01*
X5059100Y1545400D01*
X5069700Y1534800D01*
X5100740Y1538839D01*
G37*
G36*
X4773140Y1957360D02*
G01*
X4770760Y1904259D01*
X4796380Y1922200D01*
X4797060Y1937200D01*
G37*
G36*
X4937180Y2312720D02*
G01*
X4925640Y2260840D01*
X4953960Y2273900D01*
X4957280Y2288900D01*
G37*
G36*
X4885120Y1956260D02*
G01*
X4860300Y1937200D01*
X4860280Y1922200D01*
X4885080Y1903100D01*
G37*
G36*
X4861000Y3000100D02*
G01*
X4841940Y2975280D01*
X4895100Y2975320D01*
X4876000Y3000100D01*
G37*
G36*
X4845120Y2616259D02*
G01*
X4820300Y2597200D01*
X4820280Y2582200D01*
X4845080Y2563100D01*
G37*
G36*
X4891940Y2616259D02*
G01*
X4891980Y2563100D01*
X4916780Y2582200D01*
X4916760Y2597200D01*
G37*
G36*
X4894520Y3047919D02*
G01*
X4841380Y3046740D01*
X4861000Y3022360D01*
X4876000Y3022700D01*
G37*
G36*
X5200820Y3110179D02*
G01*
X5190220Y3099580D01*
X5194260Y3068540D01*
X5231860Y3106120D01*
G37*
G36*
X5251960Y2307980D02*
G01*
X5251960Y2254820D01*
X5276780Y2273900D01*
X5276780Y2288900D01*
G37*
G36*
X5205100Y2307980D02*
G01*
X5180300Y2288900D01*
X5180300Y2273900D01*
X5205100Y2254820D01*
G37*
G36*
X5257320Y1958620D02*
G01*
X5226300Y1954560D01*
X5263900Y1917000D01*
X5267940Y1948020D01*
G37*
G36*
X5199700Y1958600D02*
G01*
X5189100Y1947980D01*
X5193160Y1916960D01*
X5230740Y1954560D01*
G37*
G36*
X2463900Y207160D02*
G01*
X2426340Y169540D01*
X2457380Y165520D01*
X2467960Y176140D01*
G37*
G36*
X834040Y237820D02*
G01*
X779780Y183520D01*
X803980Y157060D01*
X860520Y213640D01*
G37*
G36*
X3893180Y342480D02*
G01*
X3861860Y311160D01*
X3886840Y306900D01*
X3897440Y317500D01*
G37*
G36*
X3804620Y455240D02*
G01*
X3780220Y448519D01*
X3814480Y420439D01*
X3816280Y445680D01*
G37*
G36*
X3735700Y342480D02*
G01*
X3704380Y311160D01*
X3729340Y306900D01*
X3739960Y317500D01*
G37*
G36*
X3683100Y453100D02*
G01*
X3672500Y442500D01*
X3676760Y417520D01*
X3708080Y448840D01*
G37*
G36*
X3604360Y453100D02*
G01*
X3593759Y442500D01*
X3598020Y417520D01*
X3629340Y448840D01*
G37*
G36*
X3576780Y331360D02*
G01*
X3536060Y313980D01*
X3557100Y300480D01*
X3571980Y306840D01*
G37*
G36*
X3525620Y453100D02*
G01*
X3515020Y442500D01*
X3519280Y417520D01*
X3550600Y448840D01*
G37*
G36*
X3499480Y342480D02*
G01*
X3468159Y311160D01*
X3493140Y306900D01*
X3503740Y317500D01*
G37*
G36*
X3446900Y453100D02*
G01*
X3436280Y442500D01*
X3440539Y417540D01*
X3471860Y448840D01*
G37*
G36*
X3420740Y342480D02*
G01*
X3389420Y311160D01*
X3414400Y306900D01*
X3425000Y317500D01*
G37*
G36*
X3368180Y453120D02*
G01*
X3357559Y442520D01*
X3361800Y417560D01*
X3393140Y448840D01*
G37*
G36*
X3289400Y453100D02*
G01*
X3278800Y442500D01*
X3283060Y417520D01*
X3314380Y448840D01*
G37*
G36*
X3263260Y342480D02*
G01*
X3231940Y311160D01*
X3256920Y306900D01*
X3267520Y317500D01*
G37*
G36*
X3210700Y453120D02*
G01*
X3200080Y442520D01*
X3204320Y417540D01*
X3235659Y448840D01*
G37*
G36*
X4726440Y88820D02*
G01*
X4726820Y69380D01*
X4739740Y61760D01*
X4756940Y70800D01*
G37*
G36*
X4548860Y94740D02*
G01*
X4544380Y75840D01*
X4554980Y65220D01*
X4573900Y69680D01*
G37*
G36*
X4753580Y699220D02*
G01*
X4708580Y699200D01*
X4723600Y678220D01*
X4738600Y678220D01*
G37*
G36*
X4711200Y1154920D02*
G01*
X4690220Y1139900D01*
X4690240Y1124900D01*
X4711260Y1109920D01*
G37*
G36*
X4754660Y1166640D02*
G01*
X4729200Y1162400D01*
X4761020Y1130560D01*
X4765260Y1156020D01*
G37*
G36*
X4829260Y1134300D02*
G01*
X4825040Y1108840D01*
X4835660Y1098240D01*
X4861100Y1102520D01*
G37*
G36*
X4879080Y1154920D02*
G01*
X4879020Y1109920D01*
X4900040Y1124900D01*
X4900060Y1139900D01*
G37*
G36*
X3857900Y753240D02*
G01*
X3832440Y749000D01*
X3864260Y717180D01*
X3868500Y742620D01*
G37*
G36*
X3854180Y1154920D02*
G01*
X3854120Y1109920D01*
X3875140Y1124900D01*
X3875160Y1139900D01*
G37*
G36*
X4504800Y720980D02*
G01*
X4473020Y689120D01*
X4498480Y684900D01*
X4509080Y695540D01*
G37*
G36*
X4454980Y1154920D02*
G01*
X4434000Y1139900D01*
X4434020Y1124900D01*
X4455040Y1109920D01*
G37*
G36*
X4504800Y1134320D02*
G01*
X4472980Y1102520D01*
X4498440Y1098260D01*
X4509040Y1108860D01*
G37*
G36*
X4202500Y94740D02*
G01*
X4177460Y69680D01*
X4196380Y65220D01*
X4206980Y75820D01*
G37*
G36*
X4098300Y102739D02*
G01*
X4087280Y87200D01*
X4094260Y72200D01*
X4113240Y70600D01*
G37*
G36*
X4143279Y96820D02*
G01*
X4120539Y69640D01*
X4139760Y66840D01*
X4149420Y78380D01*
G37*
G36*
X3939920Y699220D02*
G01*
X3954900Y678220D01*
X3969900Y678220D01*
X3984920Y699200D01*
G37*
G36*
X3942559Y1154920D02*
G01*
X3921560Y1139900D01*
X3921580Y1124900D01*
X3942600Y1109920D01*
G37*
G36*
X3982300Y1154920D02*
G01*
X3982240Y1109920D01*
X4003260Y1124900D01*
X4003279Y1139900D01*
G37*
G36*
X4238500Y1154920D02*
G01*
X4238460Y1109920D01*
X4259480Y1124900D01*
X4259500Y1139900D01*
G37*
G36*
X4120480Y720939D02*
G01*
X4088660Y689120D01*
X4114120Y684880D01*
X4124720Y695480D01*
G37*
G36*
X4070659Y1154920D02*
G01*
X4049680Y1139900D01*
X4049700Y1124900D01*
X4070720Y1109920D01*
G37*
G36*
X4114120Y1166620D02*
G01*
X4088660Y1162400D01*
X4120480Y1130560D01*
X4124720Y1156020D01*
G37*
G36*
X4326880Y1154920D02*
G01*
X4305900Y1139900D01*
X4305920Y1124900D01*
X4326940Y1109920D01*
G37*
G36*
X4366620Y1154920D02*
G01*
X4366560Y1109920D01*
X4387580Y1124900D01*
X4387600Y1139900D01*
G37*
G36*
X3058800Y1183100D02*
G01*
X3033740Y1167040D01*
X3082840Y1141140D01*
X3081940Y1170880D01*
G37*
G36*
X3083800Y721400D02*
G01*
X3044580Y682140D01*
X3077200Y678160D01*
X3087799Y688760D01*
G37*
G36*
X2948540Y1173340D02*
G01*
X2915899Y1169360D01*
X2955140Y1130100D01*
X2959140Y1162740D01*
G37*
G36*
X2955140Y721400D02*
G01*
X2915899Y682140D01*
X2948540Y678160D01*
X2959140Y688760D01*
G37*
G36*
X3180960Y1183260D02*
G01*
X3155480Y1163540D01*
X3208900Y1148440D01*
X3197500Y1178580D01*
G37*
G36*
X3212460Y721360D02*
G01*
X3173200Y682140D01*
X3205820Y678120D01*
X3216440Y688720D01*
G37*
G36*
X2782100Y1182820D02*
G01*
X2761820Y1156940D01*
X2817320Y1156880D01*
X2797100Y1182800D01*
G37*
G36*
X2826480Y721420D02*
G01*
X2787280Y682120D01*
X2819920Y678180D01*
X2830520Y688800D01*
G37*
G36*
X930580Y3033360D02*
G01*
X894260Y3020960D01*
X946440Y2968759D01*
X958860Y3005080D01*
G37*
G36*
X1331500Y2615040D02*
G01*
X1331459Y2541220D01*
X1365920Y2570600D01*
X1365940Y2585600D01*
G37*
G36*
X1331500Y3008740D02*
G01*
X1331459Y2934920D01*
X1365920Y2964300D01*
X1365940Y2979300D01*
G37*
G36*
X1331500Y745040D02*
G01*
X1331459Y671220D01*
X1365920Y700600D01*
X1365940Y715600D01*
G37*
G36*
X1331500Y1138740D02*
G01*
X1331459Y1064920D01*
X1365920Y1094300D01*
X1365940Y1109300D01*
G37*
G36*
X2191820Y2238620D02*
G01*
X2142320Y2219260D01*
X2168600Y2202900D01*
X2183600Y2208760D01*
G37*
G36*
X2280500Y2045680D02*
G01*
X2265500Y2039920D01*
X2255320Y2014760D01*
X2304920Y2033839D01*
G37*
G36*
X2308500Y2050680D02*
G01*
X2286320Y2037780D01*
X2323900Y2000200D01*
X2336780Y2022380D01*
G37*
G36*
X2319920Y1985980D02*
G01*
X2268280Y1973340D01*
X2280000Y1950660D01*
X2320000Y1960460D01*
G37*
G36*
X2461820Y1741940D02*
G01*
X2412320Y1722580D01*
X2438600Y1706220D01*
X2453600Y1712100D01*
G37*
G36*
X2588700Y1510060D02*
G01*
X2553400Y1470320D01*
X2584600Y1468100D01*
X2594580Y1479319D01*
G37*
G36*
X2523560Y1524680D02*
G01*
X2505040Y1499700D01*
X2509440Y1484700D01*
X2538500Y1473660D01*
G37*
G36*
X2040600Y1349980D02*
G01*
X2069019Y1305060D01*
X2079880Y1334280D01*
X2071660Y1347280D01*
G37*
G36*
X2054960Y1363260D02*
G01*
X2032780Y1350360D01*
X2070360Y1312780D01*
X2083260Y1334960D01*
G37*
G36*
X3222900Y3643580D02*
G01*
X3200179Y3616380D01*
X3216180Y3609740D01*
X3232280Y3629000D01*
G37*
G36*
X3122700Y3624400D02*
G01*
X3120400Y3607880D01*
X3160400Y3607799D01*
X3158140Y3624340D01*
G37*
G36*
X3123680Y2897799D02*
G01*
X3110299Y2887799D01*
X3138420Y2859340D01*
X3148580Y2872580D01*
G37*
G36*
X3221940Y2913900D02*
G01*
X3221980Y2878460D01*
X3238500Y2886200D01*
X3238480Y2906200D01*
G37*
G36*
X4179440Y2913900D02*
G01*
X4179480Y2878460D01*
X4196000Y2888700D01*
X4195980Y2903700D01*
G37*
G36*
X3677760Y737600D02*
G01*
X3662799Y716900D01*
X3668100Y701900D01*
X3692740Y695180D01*
G37*
G36*
X3733900Y1130400D02*
G01*
X3702080Y1098580D01*
X3727520Y1094340D01*
X3738140Y1104940D01*
G37*
G36*
X3545160Y737600D02*
G01*
X3530200Y716900D01*
X3535500Y701900D01*
X3560140Y695180D01*
G37*
G36*
X3597559Y737600D02*
G01*
X3582580Y695180D01*
X3607220Y701900D01*
X3612520Y716900D01*
G37*
G36*
X3594960Y1162680D02*
G01*
X3569500Y1158460D01*
X3601300Y1126620D01*
X3605560Y1152060D01*
G37*
G36*
X3464960Y737600D02*
G01*
X3449980Y695180D01*
X3474620Y701900D01*
X3479920Y716900D01*
G37*
G36*
X3468700Y1130400D02*
G01*
X3436900Y1098580D01*
X3462340Y1094340D01*
X3472960Y1104960D01*
G37*
G36*
X3326400Y1165440D02*
G01*
X3303120Y1158360D01*
X3336160Y1127820D01*
X3341400Y1151580D01*
G37*
G36*
X3329760Y757180D02*
G01*
X3304300Y752940D01*
X3336120Y721100D01*
X3340360Y746560D01*
G37*
G36*
X1531220Y2205440D02*
G01*
X1513520Y2187780D01*
X1521220Y2164320D01*
X1554660Y2197700D01*
G37*
G36*
X2801500Y2949000D02*
G01*
X2778039Y2941280D01*
X2811440Y2907860D01*
X2819160Y2931300D01*
G37*
G36*
X2759180Y2413800D02*
G01*
X2737140Y2410200D01*
X2737100Y2370200D01*
X2759140Y2366560D01*
G37*
G36*
X1585520Y182979D02*
G01*
X1566120Y152620D01*
X1641519Y114880D01*
X1654180Y148620D01*
G37*
G36*
X5608980Y725400D02*
G01*
X5561820Y721919D01*
X5616079Y667620D01*
X5619600Y714780D01*
G37*
G36*
X5531160Y1453480D02*
G01*
X5495320Y1422600D01*
X5495320Y1407600D01*
X5531140Y1376699D01*
G37*
G36*
X5531120Y1081320D02*
G01*
X5495320Y1050400D01*
X5495320Y1035400D01*
X5531180Y1004539D01*
G37*
G36*
X5453180Y2786920D02*
G01*
X5417360Y2756000D01*
X5417380Y2741000D01*
X5453220Y2710140D01*
G37*
G36*
X5453200Y2042700D02*
G01*
X5417380Y2011800D01*
X5417380Y1996800D01*
X5453200Y1965920D01*
G37*
G36*
X5453200Y1670580D02*
G01*
X5417380Y1639700D01*
X5417380Y1624700D01*
X5453200Y1593800D01*
G37*
G36*
X2566460Y3275440D02*
G01*
X2566460Y3192760D01*
X2605040Y3226600D01*
X2605040Y3241600D01*
G37*
G36*
X982500Y2035420D02*
G01*
X967500Y2034100D01*
X937200Y1992700D01*
X1019560Y1999940D01*
G37*
G36*
X1176600Y3526160D02*
G01*
X1195000Y3490320D01*
X1235000Y3490340D01*
X1253380Y3526160D01*
G37*
G36*
X1249660Y3597660D02*
G01*
X1248020Y3520920D01*
X1284220Y3538540D01*
X1285080Y3578519D01*
G37*
G36*
X175040Y2544240D02*
G01*
X146760Y2515960D01*
X148800Y2487920D01*
X203100Y2542200D01*
G37*
G36*
X175040Y926040D02*
G01*
X146760Y897760D01*
X148820Y869720D01*
X203060Y924040D01*
G37*
G36*
X250960Y2053020D02*
G01*
X196680Y1998720D01*
X235020Y1986399D01*
X263300Y2014680D01*
G37*
G36*
X141460Y3060980D02*
G01*
X140900Y3037100D01*
X180900Y3028240D01*
X190460Y3050120D01*
G37*
G36*
X141460Y1442820D02*
G01*
X140900Y1418940D01*
X180900Y1410080D01*
X190460Y1431960D01*
G37*
G36*
X240600Y3698960D02*
G01*
X225560Y3623680D01*
X266720Y3646800D01*
X269700Y3661800D01*
G37*
G36*
X5164320Y668780D02*
G01*
X5155580Y666900D01*
X5155580Y651900D01*
X5164320Y650020D01*
G37*
G36*
X3719360Y2063380D02*
G01*
X3719360Y2044620D01*
X3728120Y2046500D01*
X3728120Y2061500D01*
G37*
G36*
X4287180Y386700D02*
G01*
X4278920Y383300D01*
X4281880Y368300D01*
X4290800Y368300D01*
G37*
G36*
X4128140Y385180D02*
G01*
X4119380Y383300D01*
X4119380Y368300D01*
X4128140Y366420D01*
G37*
G36*
X4850940Y388980D02*
G01*
X4842180Y387100D01*
X4842180Y372100D01*
X4850940Y370220D01*
G37*
G36*
X4380200Y140300D02*
G01*
X4369600Y129700D01*
X4374220Y122420D01*
X4387480Y135680D01*
G37*
G36*
X4131800Y487540D02*
G01*
X4121180Y476960D01*
X4126019Y469440D01*
X4139300Y482680D01*
G37*
G36*
X3976720Y214780D02*
G01*
X3971860Y207260D01*
X3982460Y196660D01*
X3989980Y201520D01*
G37*
G36*
X3725539Y223180D02*
G01*
X3717120Y220200D01*
X3719160Y205200D01*
X3728080Y204600D01*
G37*
G36*
X4199860Y430880D02*
G01*
X4199860Y412120D01*
X4208620Y414000D01*
X4208620Y429000D01*
G37*
G36*
X4182340Y660380D02*
G01*
X4173580Y658500D01*
X4173580Y643500D01*
X4182340Y641620D01*
G37*
G36*
X4026080Y435319D02*
G01*
X4012840Y422020D01*
X4020380Y417180D01*
X4030960Y427819D01*
G37*
G36*
X4006860Y451840D02*
G01*
X3996259Y441240D01*
X4001120Y433720D01*
X4014380Y446980D01*
G37*
G36*
X4102160Y1268580D02*
G01*
X4102160Y1249820D01*
X4110920Y1251700D01*
X4110920Y1266700D01*
G37*
G36*
X2789400Y2735840D02*
G01*
X2789320Y2717080D01*
X2798080Y2718920D01*
X2798159Y2733920D01*
G37*
G36*
X2416740Y1219380D02*
G01*
X2407980Y1217500D01*
X2407980Y1202500D01*
X2416740Y1200620D01*
G37*
G36*
X2013260Y2463180D02*
G01*
X2013260Y2444420D01*
X2022020Y2446300D01*
X2022020Y2461300D01*
G37*
G36*
X1809319Y1875180D02*
G01*
X1804460Y1867660D01*
X1815080Y1857060D01*
X1822580Y1861920D01*
G37*
G36*
X4061740Y339380D02*
G01*
X4052980Y337500D01*
X4052980Y322500D01*
X4061740Y320620D01*
G37*
G36*
X4963260Y2572340D02*
G01*
X4952660Y2561720D01*
X4957520Y2554220D01*
X4970780Y2567480D01*
G37*
G36*
X2314860Y2599980D02*
G01*
X2314860Y2581220D01*
X2323620Y2583100D01*
X2323620Y2598100D01*
G37*
G36*
X3642480Y280780D02*
G01*
X3629220Y267520D01*
X3636740Y262660D01*
X3647340Y273260D01*
G37*
G36*
X5597619Y374600D02*
G01*
X5590760Y357140D01*
X5599340Y355060D01*
X5605340Y370280D01*
G37*
G36*
X4146280Y528380D02*
G01*
X4133020Y515120D01*
X4140520Y510260D01*
X4151139Y520860D01*
G37*
G36*
X2697760Y1645040D02*
G01*
X2687160Y1634420D01*
X2692020Y1626900D01*
X2705280Y1640180D01*
G37*
G36*
X2938399Y1466080D02*
G01*
X2938399Y1447320D01*
X2947160Y1449199D01*
X2947160Y1464199D01*
G37*
G36*
X4959940Y389540D02*
G01*
X4959940Y361980D01*
X4982440Y368300D01*
X4982440Y383300D01*
G37*
G36*
X5058340Y426940D02*
G01*
X5058340Y399380D01*
X5073400Y405700D01*
X5073400Y420700D01*
G37*
G36*
X5009120Y352140D02*
G01*
X4986620Y345900D01*
X4986620Y330900D01*
X5009120Y324580D01*
G37*
G36*
X5058340Y352140D02*
G01*
X5058340Y324580D01*
X5073400Y330900D01*
X5073400Y345900D01*
G37*
G36*
X5188940Y389540D02*
G01*
X5188940Y361980D01*
X5204000Y368300D01*
X5204000Y383300D01*
G37*
G36*
X5287320Y426940D02*
G01*
X5287320Y399380D01*
X5296400Y405700D01*
X5296400Y420700D01*
G37*
G36*
X5238120Y352140D02*
G01*
X5215620Y345900D01*
X5215620Y330900D01*
X5238120Y324580D01*
G37*
G36*
X2608500Y2866780D02*
G01*
X2544560Y2835440D01*
X2615440Y2792340D01*
X2643680Y2845400D01*
G37*
G36*
X2615440Y2835440D02*
G01*
X2615440Y2764560D01*
X2675440Y2785840D01*
X2675440Y2825840D01*
G37*
G36*
X3542020Y3540000D02*
G01*
X3542020Y3461200D01*
X3602020Y3480600D01*
X3602020Y3520600D01*
G37*
G36*
X4343620Y3540000D02*
G01*
X4283620Y3520600D01*
X4283620Y3480600D01*
X4343620Y3461200D01*
G37*
G36*
X1046940Y3202380D02*
G01*
X1050600Y3145100D01*
X1090600Y3145100D01*
X1094180Y3202380D01*
G37*
G36*
X1196900Y3272600D02*
G01*
X1185640Y3257500D01*
X1223140Y3257500D01*
X1211900Y3272600D01*
G37*
G36*
X133340Y2698560D02*
G01*
X140900Y2638560D01*
X180900Y2638560D01*
X188460Y2698560D01*
G37*
G36*
X140900Y2939660D02*
G01*
X133340Y2879660D01*
X188460Y2879660D01*
X180900Y2939660D01*
G37*
G36*
X133340Y1080400D02*
G01*
X140900Y1020400D01*
X180900Y1020400D01*
X188460Y1080400D01*
G37*
G36*
X140900Y1321500D02*
G01*
X133340Y1261500D01*
X188460Y1261500D01*
X180900Y1321500D01*
G37*
G36*
X541980Y1841699D02*
G01*
X481980Y1839319D01*
X481980Y1799319D01*
X541980Y1794440D01*
G37*
G36*
X562000Y1856699D02*
G01*
X550740Y1841699D01*
X588240Y1841699D01*
X577000Y1856699D01*
G37*
G36*
X597080Y1975560D02*
G01*
X597080Y1928300D01*
X657080Y1931900D01*
X657080Y1971900D01*
G37*
G36*
X541980Y1975560D02*
G01*
X481980Y1971900D01*
X481980Y1931900D01*
X541980Y1928300D01*
G37*
G36*
X575860Y285780D02*
G01*
X560800Y274600D01*
X560800Y194600D01*
X575860Y183420D01*
G37*
G36*
X3424680Y2851960D02*
G01*
X3409600Y2840700D01*
X3409600Y2825700D01*
X3424680Y2814460D01*
G37*
G36*
X3424680Y2977940D02*
G01*
X3409600Y2966700D01*
X3409600Y2951700D01*
X3424680Y2940440D01*
G37*
G36*
X4339680Y2851960D02*
G01*
X4324600Y2840700D01*
X4324600Y2825700D01*
X4339680Y2814460D01*
G37*
G36*
X4339680Y2851960D02*
G01*
X4324600Y2840700D01*
X4324600Y2825700D01*
X4339680Y2814460D01*
G37*
G36*
X4339680Y2977940D02*
G01*
X4324600Y2966700D01*
X4324600Y2951700D01*
X4339680Y2940440D01*
G37*
G36*
X482900Y2367600D02*
G01*
X486500Y2352500D01*
X526500Y2352500D01*
X530160Y2367600D01*
G37*
G36*
X612500Y2474600D02*
G01*
X608900Y2442400D01*
X656140Y2442400D01*
X652500Y2474600D01*
G37*
G36*
X499000Y762500D02*
G01*
X487740Y747400D01*
X525240Y747400D01*
X514000Y762500D01*
G37*
G36*
X608900Y672600D02*
G01*
X612500Y625100D01*
X652500Y625100D01*
X656140Y672600D01*
G37*
G36*
X3046780Y428760D02*
G01*
X3030000Y417500D01*
X3030000Y402500D01*
X3046780Y391260D01*
G37*
G36*
X4501920Y389540D02*
G01*
X4501920Y361980D01*
X4524420Y368300D01*
X4524420Y383300D01*
G37*
G36*
X4551120Y426940D02*
G01*
X4536100Y420700D01*
X4536100Y405700D01*
X4551120Y399380D01*
G37*
G36*
X4551120Y352140D02*
G01*
X4528620Y345900D01*
X4528620Y330900D01*
X4551120Y324580D01*
G37*
G36*
X4600340Y352140D02*
G01*
X4600340Y324580D01*
X4622840Y330900D01*
X4622840Y345900D01*
G37*
G36*
X4730940Y389540D02*
G01*
X4730940Y361980D01*
X4746000Y368300D01*
X4746000Y383300D01*
G37*
G36*
X4780120Y426940D02*
G01*
X4765100Y420700D01*
X4765100Y405700D01*
X4780120Y399380D01*
G37*
G36*
X4829340Y352140D02*
G01*
X4829340Y324580D01*
X4851840Y330900D01*
X4851840Y345900D01*
G37*
G36*
X4780120Y352140D02*
G01*
X4765100Y345900D01*
X4765100Y330900D01*
X4780120Y324580D01*
G37*
G36*
X4043940Y389540D02*
G01*
X4043940Y361980D01*
X4059000Y368300D01*
X4059000Y383300D01*
G37*
G36*
X4093120Y426940D02*
G01*
X4078100Y420700D01*
X4078100Y405700D01*
X4093120Y399380D01*
G37*
G36*
X4142320Y352140D02*
G01*
X4142320Y324580D01*
X4157400Y330900D01*
X4157400Y345900D01*
G37*
G36*
X4272920Y389540D02*
G01*
X4272920Y361980D01*
X4288000Y368300D01*
X4288000Y383300D01*
G37*
G36*
X4322120Y426940D02*
G01*
X4307100Y420700D01*
X4307100Y405700D01*
X4322120Y399380D01*
G37*
G36*
X4371340Y352140D02*
G01*
X4371340Y324580D01*
X4386400Y330900D01*
X4386400Y345900D01*
G37*
G36*
X4322120Y352140D02*
G01*
X4299620Y345900D01*
X4299620Y330900D01*
X4322120Y324580D01*
G37*
G36*
X4077700Y3422260D02*
G01*
X4058720Y3383159D01*
X4072860Y3361960D01*
X4106620Y3378960D01*
G37*
G36*
X4113780Y3438320D02*
G01*
X4077700Y3422260D01*
X4117080Y3378960D01*
X4130720Y3419700D01*
G37*
G36*
X4187940Y3419360D02*
G01*
X4187940Y3381860D01*
X4203000Y3393100D01*
X4203000Y3408100D01*
G37*
G36*
X3132220Y3270360D02*
G01*
X3121060Y3247860D01*
X3158560Y3247860D01*
X3147220Y3270360D01*
G37*
G36*
X3230440Y3247860D02*
G01*
X3230440Y3204560D01*
X3260440Y3216200D01*
X3260440Y3236200D01*
G37*
G36*
X1442080Y1809160D02*
G01*
X1430820Y1786660D01*
X1468320Y1786660D01*
X1457080Y1809160D01*
G37*
G36*
X1540120Y1783760D02*
G01*
X1540120Y1746260D01*
X1562620Y1757500D01*
X1562620Y1772500D01*
G37*
G36*
X1430820Y1918340D02*
G01*
X1442080Y1895840D01*
X1457080Y1895840D01*
X1468320Y1918340D01*
G37*
G36*
X1540120Y1958760D02*
G01*
X1540120Y1921260D01*
X1555200Y1932500D01*
X1555200Y1947500D01*
G37*
G36*
X2331260Y2969880D02*
G01*
X2342500Y2954800D01*
X2357500Y2954800D01*
X2368760Y2969880D01*
G37*
G36*
X2561660Y3080120D02*
G01*
X2518340Y3040740D01*
X2575059Y3036880D01*
X2596960Y3074900D01*
G37*
G36*
X2521260Y2969880D02*
G01*
X2532500Y2954800D01*
X2547500Y2954800D01*
X2558760Y2969880D01*
G37*
G36*
X2325760Y2294140D02*
G01*
X2315140Y2283560D01*
X2323100Y2259720D01*
X2349660Y2286180D01*
G37*
G36*
X2609760Y1718660D02*
G01*
X2621000Y1703600D01*
X2636000Y1703600D01*
X2647260Y1718660D01*
G37*
G36*
X2788960Y1524460D02*
G01*
X2788960Y1486960D01*
X2804000Y1498200D01*
X2804000Y1513200D01*
G37*
G36*
X2852280Y1291699D02*
G01*
X2862500Y1276600D01*
X2877500Y1276600D01*
X2887720Y1291699D01*
G37*
G36*
X3302720Y1377940D02*
G01*
X3281800Y1346819D01*
X3310000Y1340000D01*
X3320000Y1350000D01*
G37*
G36*
X3267280Y1291699D02*
G01*
X3277500Y1276600D01*
X3292500Y1276600D01*
X3302720Y1291699D01*
G37*
G36*
X3007280Y1291699D02*
G01*
X3017500Y1269200D01*
X3032500Y1269200D01*
X3042720Y1291699D01*
G37*
G36*
X3147280Y1291699D02*
G01*
X3152500Y1271700D01*
X3177500Y1271700D01*
X3182720Y1291699D01*
G37*
G36*
X1267440Y2410560D02*
G01*
X1247400Y2399400D01*
X1247400Y2374400D01*
X1267440Y2363300D01*
G37*
G36*
X1322560Y2410560D02*
G01*
X1322560Y2363300D01*
X1342600Y2374400D01*
X1342600Y2399400D01*
G37*
G36*
X1276260Y2229440D02*
G01*
X1287500Y2206940D01*
X1302500Y2206940D01*
X1313760Y2229440D01*
G37*
G36*
X956260Y2224440D02*
G01*
X967500Y2201940D01*
X982500Y2201940D01*
X993760Y2224440D01*
G37*
G36*
X1002560Y2405560D02*
G01*
X1002560Y2358300D01*
X1040060Y2369400D01*
X1040060Y2394400D01*
G37*
G36*
X2769440Y3258759D02*
G01*
X2754400Y3247500D01*
X2754400Y3232500D01*
X2769440Y3221259D01*
G37*
G36*
X2914400Y3287600D02*
G01*
X2903300Y3267559D01*
X2950560Y3267559D01*
X2939400Y3287600D01*
G37*
G36*
X2903300Y3212440D02*
G01*
X2914400Y3174940D01*
X2939400Y3174940D01*
X2950560Y3212440D01*
G37*
G36*
X2908300Y3517440D02*
G01*
X2919400Y3479940D01*
X2944400Y3479940D01*
X2955560Y3517440D01*
G37*
G36*
X2774440Y3563759D02*
G01*
X2759400Y3552500D01*
X2759400Y3537500D01*
X2774440Y3526259D01*
G37*
G36*
X3431960Y2518760D02*
G01*
X3431960Y2481260D01*
X3447000Y2492500D01*
X3447000Y2507500D01*
G37*
G36*
X3370800Y2581180D02*
G01*
X3355800Y2551180D01*
X3405800Y2551180D01*
X3390800Y2581180D01*
G37*
G36*
X4140500Y2566200D02*
G01*
X4129240Y2551180D01*
X4166740Y2551180D01*
X4155500Y2566200D01*
G37*
G36*
X1583820Y403160D02*
G01*
X1536300Y392000D01*
X1536300Y312000D01*
X1583820Y300800D01*
G37*
G36*
X5513819Y533640D02*
G01*
X5498800Y522400D01*
X5498800Y507400D01*
X5513819Y496140D01*
G37*
G36*
X5513819Y1277940D02*
G01*
X5491319Y1266700D01*
X5491319Y1251700D01*
X5513819Y1240440D01*
G37*
G36*
X5546260Y835860D02*
G01*
X5557500Y820800D01*
X5572500Y820800D01*
X5583760Y835860D01*
G37*
G36*
X5435860Y2551040D02*
G01*
X5420800Y2539800D01*
X5420800Y2524800D01*
X5435860Y2513540D01*
G37*
G36*
X5435860Y2178960D02*
G01*
X5420800Y2167700D01*
X5420800Y2152700D01*
X5435860Y2141460D01*
G37*
G36*
X5435860Y1806860D02*
G01*
X5413360Y1795600D01*
X5413360Y1780600D01*
X5435860Y1769360D01*
G37*
G36*
X2585120Y3564660D02*
G01*
X2585120Y3527160D01*
X2607620Y3538399D01*
X2607620Y3553399D01*
G37*
G36*
X1285900Y2030200D02*
G01*
X1274640Y2015120D01*
X1312140Y2015120D01*
X1300900Y2030200D01*
G37*
G36*
X251060Y2385200D02*
G01*
X251060Y2285200D01*
X311060Y2315200D01*
X311060Y2355200D01*
G37*
G36*
X251060Y735740D02*
G01*
X251060Y698240D01*
X266100Y709500D01*
X266100Y724500D01*
G37*
G36*
X251060Y1927820D02*
G01*
X251060Y1842700D01*
X311060Y1838000D01*
X311060Y1879920D01*
G37*
G36*
X149900Y3460860D02*
G01*
X179899Y3413300D01*
X219899Y3413300D01*
X249899Y3460860D01*
G37*
G36*
X2104600Y3444580D02*
G01*
X2087280Y3408020D01*
X2133300Y3365020D01*
X2167020Y3436180D01*
G37*
G36*
X2123520Y3551700D02*
G01*
X2111060Y3542940D01*
X2114900Y3518120D01*
X2145560Y3539700D01*
G37*
G36*
X2169840Y3539980D02*
G01*
X2150160Y3461240D01*
X2198800Y3437520D01*
X2232940Y3459940D01*
G37*
G36*
X1129120Y1704160D02*
G01*
X1091580Y1685120D01*
X1102380Y1623320D01*
X1172600Y1658940D01*
G37*
G36*
X3452700Y3425779D02*
G01*
X3420220Y3399500D01*
X3425899Y3374500D01*
X3466540Y3364840D01*
G37*
G36*
X3540920Y3391360D02*
G01*
X3486160Y3361240D01*
X3535620Y3344100D01*
X3559180Y3355899D01*
G37*
G36*
X3447780Y3282960D02*
G01*
X3421620Y3243560D01*
X3445600Y3239260D01*
X3492820Y3261240D01*
G37*
G36*
X4338140Y3444440D02*
G01*
X4324580Y3423440D01*
X4345900Y3387340D01*
X4379820Y3439860D01*
G37*
G36*
X4348360Y3319360D02*
G01*
X4325860Y3308100D01*
X4325860Y3293100D01*
X4348360Y3281860D01*
G37*
G36*
X466420Y328700D02*
G01*
X466420Y226340D01*
X517900Y237500D01*
X517900Y317500D01*
G37*
G36*
X1697920Y1706540D02*
G01*
X1627220Y1635820D01*
X1690860Y1614620D01*
X1719139Y1642900D01*
G37*
G36*
X2004420Y1357620D02*
G01*
X1983080Y1322400D01*
X2001180Y1304420D01*
X2028740Y1349880D01*
G37*
G36*
X1069520Y1644340D02*
G01*
X1005460Y1598560D01*
X1055880Y1560840D01*
X1088860Y1584420D01*
G37*
G36*
X1627060Y1706699D02*
G01*
X1576900Y1653920D01*
X1585400Y1613800D01*
X1642060Y1635820D01*
G37*
G36*
X1431000Y1743340D02*
G01*
X1442420Y1720840D01*
X1457420Y1720840D01*
X1468500Y1743340D01*
G37*
G36*
X1627060Y1690040D02*
G01*
X1604560Y1678800D01*
X1604560Y1663800D01*
X1627060Y1652540D01*
G37*
G36*
X1733720Y1710700D02*
G01*
X1723100Y1700100D01*
X1727120Y1669060D01*
X1764740Y1706620D01*
G37*
G36*
X2024000Y1527480D02*
G01*
X2011160Y1504960D01*
X2025040Y1484780D01*
X2048420Y1525840D01*
G37*
G36*
X1897860Y1673500D02*
G01*
X1860300Y1635900D01*
X1887800Y1628320D01*
X1905460Y1646020D01*
G37*
G36*
X1927120Y1973460D02*
G01*
X1923100Y1942440D01*
X1933700Y1931819D01*
X1964720Y1935900D01*
G37*
G36*
X4765260Y110980D02*
G01*
X4765260Y75540D01*
X4781780Y85760D01*
X4781780Y100760D01*
G37*
G36*
X5009300Y110980D02*
G01*
X4992780Y100760D01*
X4992780Y85760D01*
X5009300Y75540D01*
G37*
D11*
X3785000Y419400D02*
G01*
X3785000Y425000D01*
X3830000Y470000D01*
X3905000Y470000D01*
X3995000Y335000D01*
X4070000Y330000D01*
X2350000Y2954800D02*
G01*
X2350000Y2920000D01*
X2430000Y2840000D01*
X2430000Y2755000D01*
X2280000Y2605000D01*
X2280000Y2500000D01*
X3380799Y2590599D02*
G01*
X2306599Y2590599D01*
D12*
X3217200Y3626399D02*
G01*
X3228400Y3615200D01*
X3228400Y3417600D01*
X3228400Y3386999D02*
G01*
X3510399Y3386999D01*
X4080200Y3386999D02*
G01*
X4023000Y3329699D01*
X3567700Y3329699D01*
X3510399Y3386999D01*
D13*
X4115000Y3386999D02*
G01*
X4080200Y3386999D01*
D12*
X4097399Y3400599D02*
G01*
X4145000Y3455000D01*
X4305000Y3450000D01*
X4393000Y3396399D01*
D14*
X3140399Y3640000D02*
G01*
X3140399Y3425799D01*
X2070900Y2590799D02*
G01*
X2244099Y2417600D01*
X2580000Y2417600D01*
X632500Y2474600D02*
G01*
X1946400Y2474600D01*
X199899Y3413299D02*
G01*
X632500Y2980700D01*
X632500Y2474600D01*
D11*
X2446099Y1493699D02*
G01*
X2446099Y1740500D01*
D14*
X199899Y1893899D02*
G01*
X435000Y1820000D01*
X569499Y1818099D01*
X569499Y1951900D02*
G01*
X853100Y1951900D01*
X1137500Y1667500D01*
X1137500Y1631300D01*
X266100Y716999D02*
G01*
X311500Y762500D01*
X506500Y762500D01*
X632500Y625100D02*
G01*
X832200Y425399D01*
X1319899Y425399D01*
D11*
X2530000Y3545900D02*
G01*
X2758500Y3545900D01*
X2759399Y3545000D01*
X2798100Y3545000D02*
G01*
X2759399Y3545000D01*
X2530000Y3234099D02*
G01*
X2748500Y3234099D01*
X2754399Y3240000D01*
X2793100Y3240000D02*
G01*
X2754399Y3240000D01*
X981599Y1960000D02*
G01*
X975000Y1966599D01*
X975000Y2248099D01*
X1293400Y2030199D02*
G01*
X1295000Y2031799D01*
X1295000Y2253099D01*
X1293400Y1960000D02*
G01*
X1293400Y2030199D01*
X5172600Y659400D02*
G01*
X5113400Y659400D01*
X4984799Y788000D01*
X3371199Y788000D01*
X3306199Y723000D01*
X5565000Y1415100D02*
G01*
X3857899Y1415100D01*
X3571400Y1128499D01*
X3703999Y1128499D02*
G01*
X3789499Y1042899D01*
X5565000Y1042899D01*
X2870000Y1276599D02*
G01*
X2789600Y1196199D01*
X2789600Y1132399D01*
X2870000Y1307399D02*
G01*
X2870000Y1276599D01*
X5487100Y2532300D02*
G01*
X5420799Y2532300D01*
X3285000Y1276599D02*
G01*
X3175500Y1167199D01*
X3175500Y1132399D01*
X3285000Y1307399D02*
G01*
X3285000Y1276599D01*
X3025000Y1307399D02*
G01*
X3025000Y1239200D01*
X2918199Y1132399D01*
D12*
X3165000Y1307399D02*
G01*
X3165000Y1271700D01*
D11*
X4248299Y375799D02*
G01*
X4288000Y375799D01*
X4288000Y375799D02*
G01*
X4293800Y375799D01*
X4297100Y379099D01*
X4019300Y375799D02*
G01*
X4058999Y375799D01*
X4058999Y375799D02*
G01*
X4136400Y375799D01*
X4706300Y375799D02*
G01*
X4746000Y375799D01*
X4859200Y379600D02*
G01*
X4749799Y379600D01*
X4746000Y375799D01*
X4477299Y375799D02*
G01*
X4598800Y375799D01*
X4615000Y391999D01*
X4615000Y579000D01*
X4474899Y719099D01*
X4731099Y719099D02*
G01*
X4731099Y447100D01*
X4765100Y413200D01*
X4804700Y413200D02*
G01*
X4765100Y413200D01*
X4575699Y413200D02*
G01*
X4536099Y413200D01*
X4536099Y413200D02*
G01*
X4391300Y558000D01*
X4107299Y558000D01*
X3834300Y719099D02*
G01*
X3878299Y763000D01*
X3984899Y763000D01*
X4107299Y640599D01*
X4107299Y558000D01*
X4107299Y558000D02*
G01*
X4107299Y501500D01*
X4138500Y470199D01*
X3548750Y419369D02*
G01*
X3370519Y597600D01*
X3039701Y597600D01*
X2918198Y719099D01*
X4191599Y421500D02*
G01*
X4298699Y421500D01*
X4307100Y413200D01*
X4346700Y413200D02*
G01*
X4307100Y413200D01*
X4090500Y719099D02*
G01*
X4158599Y650999D01*
X4190600Y650999D01*
X3046899Y719099D02*
G01*
X3147201Y618701D01*
X3428158Y618701D01*
X3627489Y419369D01*
X4117700Y413200D02*
G01*
X4078100Y413200D01*
X4078100Y413200D02*
G01*
X4035000Y413200D01*
X4013599Y434499D01*
X3962399Y719099D02*
G01*
X3962399Y485700D01*
X4013599Y434499D01*
X3175497Y719099D02*
G01*
X3254701Y639800D01*
X3485799Y639800D01*
X3706229Y419369D01*
X5565000Y886999D02*
G01*
X5565000Y820799D01*
X5565000Y1259200D02*
G01*
X4093900Y1259200D01*
X5565000Y514899D02*
G01*
X5498800Y514899D01*
X506500Y710000D02*
G01*
X506500Y762500D01*
X199899Y716999D02*
G01*
X266100Y716999D01*
D14*
X199899Y2335200D02*
G01*
X489200Y2335200D01*
X506500Y2352500D01*
X506500Y2405000D02*
G01*
X506500Y2352500D01*
D11*
X5487100Y2004299D02*
G01*
X5313599Y2004299D01*
X5228500Y1919200D01*
X2803999Y1505700D02*
G01*
X3288199Y1989899D01*
X5157799Y1989899D01*
X5228500Y1919200D01*
X2753500Y1505700D02*
G01*
X2803999Y1505700D01*
X4867399Y3070799D02*
G01*
X4868500Y3069699D01*
X4868500Y2951900D01*
X5487100Y2160200D02*
G01*
X5420799Y2160200D01*
X5420799Y2160200D02*
G01*
X5299600Y2281399D01*
X5228500Y2281399D01*
X5228500Y2281399D02*
G01*
X4918999Y2281399D01*
X4908500Y2291900D01*
X5487100Y1632199D02*
G01*
X5156499Y1632199D01*
X5098500Y1574200D01*
X2628500Y1754099D02*
G01*
X2628500Y1703600D01*
X5487100Y1788099D02*
G01*
X5246800Y1788099D01*
X5098500Y1936399D01*
X1298900Y1101799D02*
G01*
X1645399Y1101799D01*
X1661199Y1086100D01*
X1298900Y708099D02*
G01*
X1645399Y708099D01*
X1661199Y723899D01*
X1925000Y723899D02*
G01*
X1661199Y723899D01*
X569499Y1818099D02*
G01*
X569499Y1856700D01*
D14*
X170799Y1459000D02*
G01*
X160900Y1449200D01*
X160900Y1237899D01*
X199899Y872899D02*
G01*
X160900Y911900D01*
X160900Y1104000D01*
X170799Y3077199D02*
G01*
X160900Y3067300D01*
X160900Y2855999D01*
X199899Y2491100D02*
G01*
X160900Y2530100D01*
X160900Y2722199D01*
X897299Y2971799D02*
G01*
X1070600Y3145100D01*
X1070600Y3229899D01*
D11*
X1298900Y2971799D02*
G01*
X1580299Y2971799D01*
X1596000Y2956100D01*
X1298900Y2578099D02*
G01*
X1580299Y2578099D01*
X1596000Y2593899D01*
X4163800Y2896199D02*
G01*
X4261599Y2896199D01*
X4324600Y2959200D01*
X4392799Y2959200D02*
G01*
X4324600Y2959200D01*
X4203000Y3400599D02*
G01*
X4303000Y3300599D01*
X4392799Y3300599D01*
X4168299Y3400599D02*
G01*
X4203000Y3400599D01*
D13*
X3206300Y2896199D02*
G01*
X3346599Y2896199D01*
X3409600Y2959200D01*
D11*
X3477799Y2959200D02*
G01*
X3409600Y2959200D01*
D12*
X975000Y2381900D02*
G01*
X1242399Y2381900D01*
X1247399Y2386900D01*
X1271199Y2386900D02*
G01*
X1247399Y2386900D01*
X1271199Y2386900D02*
G01*
X1295000Y2386900D01*
X1342600Y2386900D02*
G01*
X1342600Y2376300D01*
X1552700Y2166300D01*
X1295000Y2386900D02*
G01*
X1342600Y2386900D01*
D11*
X1520399Y1940000D02*
G01*
X1555200Y1940000D01*
D12*
X2054799Y1495000D02*
G01*
X2038800Y1495000D01*
X1862500Y1671300D01*
D11*
X1821800Y1874400D02*
G01*
X1690600Y1743200D01*
X1520399Y1765000D02*
G01*
X1668800Y1765000D01*
X1690600Y1743200D01*
X1690600Y1743200D02*
G01*
X1762500Y1671300D01*
D12*
X2931899Y3545000D02*
G01*
X2931899Y3292600D01*
X2926899Y3287600D01*
X2926899Y3263800D02*
G01*
X2926899Y3287600D01*
X2926899Y3263800D02*
G01*
X2926899Y3240000D01*
X2926899Y3240000D02*
G01*
X2926899Y3056799D01*
X2780000Y2909800D01*
D11*
X2350000Y2989600D02*
G01*
X2350000Y2954800D01*
D14*
X199899Y3511999D02*
G01*
X199899Y3413299D01*
D15*
X1536300Y351999D02*
G01*
X1462799Y425399D01*
X1319899Y425399D01*
X1319899Y273600D02*
G01*
X1319899Y425399D01*
X1635000Y351999D02*
G01*
X1536300Y351999D01*
D14*
X632500Y710000D02*
G01*
X632500Y625100D01*
X4392799Y3500599D02*
G01*
X3492799Y3500599D01*
X632500Y2474600D02*
G01*
X632500Y2405000D01*
X2070900Y2590799D02*
G01*
X2280000Y2800000D01*
X2780000Y2390200D02*
G01*
X2607500Y2390200D01*
X2580000Y2417600D01*
X2580000Y2417600D02*
G01*
X2580000Y2500000D01*
D15*
X2072299Y2166300D02*
G01*
X1946400Y2292199D01*
X1946400Y2474600D01*
D14*
X1946400Y2474600D02*
G01*
X1946400Y2478099D01*
X1980699Y2512399D01*
X1992399Y2512399D01*
X2070900Y2590799D01*
D11*
X2540000Y2954800D02*
G01*
X2480000Y2894800D01*
X2480000Y2800000D01*
X2540000Y2989600D02*
G01*
X2540000Y2954800D01*
D14*
X199899Y2049800D02*
G01*
X297800Y1951900D01*
X569499Y1951900D01*
D11*
X1204399Y3229899D02*
G01*
X1204399Y3272600D01*
D14*
X1215000Y3560000D02*
G01*
X1215000Y3457399D01*
X1215000Y3457399D02*
G01*
X1215000Y3283099D01*
X1204399Y3272600D01*
D11*
X3456400Y709400D02*
G01*
X3588999Y709400D01*
X3588999Y709400D02*
G01*
X3721599Y709400D01*
X2306099Y1988800D02*
G01*
X2276800Y2018099D01*
X2276800Y2018099D02*
G01*
X2273000Y2021900D01*
X2273000Y2042800D01*
X2176099Y2139699D01*
X2176099Y2237199D01*
X3228400Y3386999D02*
G01*
X3228400Y3417600D01*
X2571099Y1492199D02*
G01*
X2447700Y1492199D01*
X2446099Y1493699D01*
X217500Y3654299D02*
G01*
X2010299Y3654299D01*
X2177600Y3486999D01*
X4137500Y79699D02*
G01*
X3494719Y79699D01*
X3233789Y340630D01*
X3477799Y2833200D02*
G01*
X3409600Y2833200D01*
X4218599Y1132399D02*
G01*
X4346800Y1132399D01*
X4178900Y93299D02*
G01*
X4220500Y51700D01*
X4530900Y51700D01*
X4572399Y93299D01*
X4346800Y1132399D02*
G01*
X4474899Y1132399D01*
X4474899Y1132399D02*
G01*
X4522500Y1084800D01*
X4811599Y1084800D01*
X4859200Y1132399D01*
X4859200Y1132399D02*
G01*
X4987299Y1132399D01*
X3380799Y2500000D02*
G01*
X3446999Y2500000D01*
X3446999Y2500000D02*
G01*
X3511800Y2435200D01*
X4212799Y2435200D01*
X4367200Y2589699D01*
X4868500Y2589699D01*
X4868500Y2589699D02*
G01*
X4935299Y2589699D01*
X4970000Y2555000D01*
X4908500Y1929699D02*
G01*
X4750699Y1929699D01*
X4748500Y1931900D01*
D13*
X3380799Y2590599D02*
G01*
X3380799Y2500000D01*
D11*
X5115400Y1132399D02*
G01*
X4987299Y1132399D01*
X5243500Y719099D02*
G01*
X5302399Y660199D01*
X5302399Y413200D01*
X5262700Y413200D02*
G01*
X5296400Y413200D01*
X5296400Y413200D02*
G01*
X5300900Y413200D01*
X5300900Y413200D02*
G01*
X5302399Y413200D01*
X5164300Y375799D02*
G01*
X5203999Y375799D01*
X5115400Y719099D02*
G01*
X5150500Y719099D01*
X5203999Y665599D01*
X5203999Y375799D01*
X4148000Y2500000D02*
G01*
X4148000Y2566199D01*
X4392799Y2833200D02*
G01*
X4324600Y2833200D01*
X3962399Y1132399D02*
G01*
X3834300Y1132399D01*
X4346700Y338400D02*
G01*
X4386400Y338400D01*
X3962399Y1132399D02*
G01*
X4090500Y1132399D01*
X4090500Y1132399D02*
G01*
X4135799Y1177699D01*
X4557700Y1177699D01*
X4603000Y1132399D01*
X4731099Y1132399D02*
G01*
X4603000Y1132399D01*
X4804700Y338400D02*
G01*
X5033699Y338400D01*
X4804700Y338400D02*
G01*
X4765100Y338400D01*
X4386400Y338400D02*
G01*
X4575699Y338400D01*
X4575699Y338400D02*
G01*
X4765100Y338400D01*
X4324600Y2748499D02*
G01*
X5487100Y2748499D01*
X4148000Y2566199D02*
G01*
X4324600Y2742899D01*
X4324600Y2748499D01*
X4324600Y2748499D02*
G01*
X4324600Y2833200D01*
X5243500Y1132500D02*
G01*
X5198299Y1177699D01*
X4776300Y1177699D01*
X4731099Y1132399D01*
X5033699Y338400D02*
G01*
X5073400Y338400D01*
X5073400Y338400D02*
G01*
X5262700Y338400D01*
X4157399Y338400D02*
G01*
X4346700Y338400D01*
X4157399Y338400D02*
G01*
X4164600Y345599D01*
X4164600Y496799D01*
X4133800Y527600D01*
X5033699Y413200D02*
G01*
X5073400Y413200D01*
X5073400Y413200D02*
G01*
X5073400Y415300D01*
X5068999Y419699D01*
X5064600Y419699D01*
X5024600Y459699D01*
X5024600Y489600D01*
X4750699Y763499D01*
X4647399Y763499D01*
X4603000Y719099D01*
X4935299Y375799D02*
G01*
X5070900Y375799D01*
X5096999Y401900D01*
X5096999Y609400D01*
X4987299Y719099D01*
X4392799Y2833200D02*
G01*
X4324600Y2833200D01*
D15*
X426999Y277500D02*
G01*
X517899Y277500D01*
X560799Y234600D01*
X627100Y234600D02*
G01*
X560799Y234600D01*
X1060100Y154200D02*
G01*
X1060100Y154200D01*
X1060100Y154200D01*
X1060100Y154200D01*
X1060100Y154200D01*
X1060100Y154200D01*
X1060100Y154200D01*
X1050000Y155000D01*
X863400Y154200D01*
X783000Y234600D01*
X1060100Y273600D02*
G01*
X1060100Y154200D01*
X1652600Y182500D02*
G01*
X1525000Y55000D01*
X305000Y50000D01*
D11*
X2052600Y1301399D02*
G01*
X2052600Y1317600D01*
X2175000Y1440000D01*
X2446099Y1440000D01*
X2446099Y1493699D01*
X3139899Y3226199D02*
G01*
X3139700Y3274600D01*
X3228500Y3364099D01*
X3228400Y3386999D01*
X2358500Y2250799D02*
G01*
X2155500Y2453800D01*
X2005000Y2453800D01*
X3863710Y340630D02*
G01*
X3904340Y300000D01*
X5283896Y300000D01*
X5498798Y514899D01*
X4386698Y123200D02*
G01*
X4374902Y135000D01*
X3596899Y135000D01*
X3391270Y340630D01*
X3470010Y340630D02*
G01*
X3625640Y185000D01*
X3960200Y185000D01*
X3989198Y213998D01*
X4117700Y338400D02*
G01*
X4157399Y338400D01*
X3549300Y338299D02*
G01*
X3549300Y318899D01*
X3655500Y212699D01*
X3735500Y212699D01*
D14*
X2177600Y3486999D02*
G01*
X2367600Y3296999D01*
X2367600Y3046799D01*
X2360000Y3060000D02*
G01*
X2550000Y3060000D01*
X2540000Y3060399D02*
G01*
X2540000Y3060399D01*
X2595000Y3055000D01*
X2640000Y3010000D01*
X2640000Y2870000D01*
X2580000Y2810000D01*
X2580000Y2800000D01*
X2655000Y2190000D02*
G01*
X2476109Y2190000D01*
X2288530Y2002420D01*
D11*
X1661199Y1086100D02*
G01*
X1718599Y1143499D01*
X1948500Y1143499D01*
X2033999Y1209000D01*
X2080000Y1210000D01*
X2425000Y1210000D01*
D14*
X1662500Y1671300D02*
G01*
X2018800Y1315000D01*
X2035000Y1315000D01*
X1037500Y1631300D02*
G01*
X1055100Y1589899D01*
X1103599Y1541399D01*
X1380100Y1541399D01*
X1662500Y1671300D01*
D11*
X1449600Y1940000D02*
G01*
X1449600Y1765000D01*
X1449600Y1765000D02*
G01*
X1450000Y1710000D01*
X1488699Y1671300D01*
X1662500Y1671300D01*
D14*
X2288500Y2002399D02*
G01*
X2300000Y2002399D01*
X2300000Y1580000D01*
X2035000Y1315000D01*
D11*
X3076300Y419400D02*
G01*
X3066899Y410000D01*
X3030000Y410000D01*
X2960000Y340000D01*
X2960000Y160000D01*
X2855000Y55000D01*
X2245000Y55000D01*
X2128500Y171500D01*
X2128500Y204899D01*
X2789600Y719099D02*
G01*
X2963699Y545000D01*
X3344399Y545000D01*
X3470000Y419400D01*
D14*
X1215000Y3560000D02*
G01*
X1920000Y3545000D01*
X2145000Y3393200D01*
D11*
X2728500Y204899D02*
G01*
X2728500Y253499D01*
X2995000Y520000D01*
X3290699Y520000D01*
X3391300Y419400D01*
X2578500Y204899D02*
G01*
X2632899Y150500D01*
X2749200Y150500D01*
X2826700Y228000D01*
X2826700Y306700D01*
X3015000Y495000D01*
X3236899Y495000D01*
X3312500Y419400D01*
X3233800Y419400D02*
G01*
X3188199Y465000D01*
X3040000Y465000D01*
X2860000Y285000D01*
X2860000Y220000D01*
X2760000Y120000D01*
X2513500Y120000D01*
X2428500Y205000D01*
X5586499Y368899D02*
G01*
X5596099Y368899D01*
X5635000Y330000D01*
X5635000Y265000D01*
X5595000Y225000D01*
X5532299Y225000D01*
X5512299Y245000D01*
X3665000Y245000D01*
X3630000Y280000D01*
X2930141Y1456700D02*
G01*
X4981000Y1456700D01*
X5098500Y1574200D01*
X2628500Y1703600D02*
G01*
X2704499Y1627699D01*
D12*
X3165000Y1271700D02*
G01*
X3046899Y1153499D01*
X3046899Y1132399D01*
D14*
X3147200Y2896199D02*
G01*
X3060000Y2810000D01*
X2597600Y2805000D01*
X2580000Y2800000D01*
D11*
X5229600Y3070799D02*
G01*
X5175000Y3125399D01*
X4271000Y3125399D01*
X4035399Y2895000D01*
X3395000Y2895000D01*
X3365000Y2865000D01*
X3255000Y2865000D01*
X3115000Y2725000D01*
X2781099Y2726500D01*
D13*
X3210799Y3226199D02*
G01*
X3418400Y3226199D01*
X3492799Y3300599D01*
X3409600Y2833200D02*
G01*
X3380799Y2804400D01*
X3380799Y2590599D01*
D11*
X5420799Y2532300D02*
G01*
X5409300Y2520900D01*
X4345900Y2520900D01*
X3878999Y2054000D01*
X3711099Y2054000D01*
X5565000Y670799D02*
G01*
X5640000Y745799D01*
X5640000Y950000D01*
X5620000Y970000D01*
X3597299Y970000D01*
X3438800Y1128499D01*
X3706199Y340599D02*
G01*
X3771899Y275000D01*
X5465000Y275000D01*
X5480000Y300000D01*
X5480000Y345000D01*
X5555000Y420000D01*
X5605000Y420000D01*
X5645000Y460000D01*
X5645000Y565000D01*
X5620000Y590000D01*
X5540000Y590000D01*
X5490000Y640000D01*
X5490000Y745799D01*
X5565000Y820799D01*
X5024930Y93260D02*
G01*
X4749629Y93260D01*
X4749629Y93260D02*
G01*
X4704600Y16999D01*
X4200200Y16999D01*
X4137500Y79699D01*
X1555200Y1940000D02*
G01*
X1585200Y1910000D01*
X1901199Y1910000D01*
X1962500Y1971300D01*
X3160348Y1349000D02*
G01*
X3165000Y1353652D01*
X3165000Y1362559D01*
X2887600Y1349000D02*
G01*
X3042600Y1349000D01*
X2571099Y1492199D02*
G01*
X2714300Y1349000D01*
X2887600Y1349000D01*
X2870000Y1362559D02*
G01*
X2870000Y1349000D01*
X3302600Y1349000D02*
G01*
X3311099Y1349000D01*
X3333900Y1326100D01*
X3333900Y1125100D01*
X3323800Y1114899D01*
X3182600Y1349000D02*
G01*
X3302600Y1349000D01*
X3042600Y1349000D02*
G01*
X3182600Y1349000D01*
X3024300Y1349000D02*
G01*
X3025000Y1362600D01*
D16*
G01*
X4935320Y375760D03*
G01*
X5033720Y413159D03*
G01*
X5033720Y338359D03*
G01*
X5164330Y375760D03*
G01*
X5262730Y413159D03*
G01*
X5262730Y338359D03*
D17*
G01*
X1070559Y3229940D03*
G01*
X1204409Y3229940D03*
D18*
G01*
X160909Y2722179D03*
G01*
X160909Y2856039D03*
G01*
X160909Y1104029D03*
G01*
X160909Y1237880D03*
G01*
X569529Y1818069D03*
G01*
X569529Y1951930D03*
G36*
X1020708Y377912D02*
G01*
X1099449Y377912D01*
X1099449Y169250D01*
X1020708Y169250D01*
G37*
G36*
X1280550Y377912D02*
G01*
X1359291Y377912D01*
X1359291Y169250D01*
X1280550Y169250D01*
G37*
D20*
G01*
X3477820Y2833209D03*
G01*
X3477820Y2959200D03*
G01*
X4392820Y2833209D03*
G01*
X4392820Y2959200D03*
D21*
G01*
X506529Y2405000D03*
G01*
X632519Y2405000D03*
G01*
X506529Y710000D03*
G01*
X632519Y710000D03*
D16*
G01*
X4477330Y375760D03*
G01*
X4575730Y413159D03*
G01*
X4575730Y338359D03*
G01*
X4706329Y375760D03*
G01*
X4804730Y413159D03*
G01*
X4804730Y338359D03*
G01*
X4019330Y375760D03*
G01*
X4117730Y413159D03*
G01*
X4117730Y338359D03*
G01*
X4248329Y375760D03*
G01*
X4346729Y413159D03*
G01*
X4346729Y338359D03*
G36*
X4077703Y3422260D02*
G01*
X4117073Y3422260D01*
X4117073Y3378951D01*
X4077703Y3378951D01*
G37*
G36*
X4148572Y3422260D02*
G01*
X4187942Y3422260D01*
X4187942Y3378951D01*
X4148572Y3378951D01*
G37*
D22*
G01*
X3210749Y3431210D03*
G01*
X3139880Y3431210D03*
G36*
X3120204Y3247863D02*
G01*
X3159575Y3247863D01*
X3159575Y3204555D01*
X3120204Y3204555D01*
G37*
G36*
X3191075Y3247863D02*
G01*
X3230444Y3247863D01*
X3230444Y3204555D01*
X3191075Y3204555D01*
G37*
G36*
X1429882Y1786653D02*
G01*
X1469252Y1786653D01*
X1469252Y1743346D01*
X1429882Y1743346D01*
G37*
G36*
X1500753Y1786653D02*
G01*
X1540123Y1786653D01*
X1540123Y1743346D01*
X1500753Y1743346D01*
G37*
G36*
X1429882Y1961653D02*
G01*
X1469252Y1961653D01*
X1469252Y1918346D01*
X1429882Y1918346D01*
G37*
G36*
X1500753Y1961653D02*
G01*
X1540123Y1961653D01*
X1540123Y1918346D01*
X1500753Y1918346D01*
G37*
D23*
G01*
X2350000Y3060430D03*
G01*
X2350000Y2989560D03*
G01*
X2540000Y3060430D03*
G01*
X2540000Y2989560D03*
D24*
G01*
X2870000Y1362559D03*
G01*
X2870000Y1307440D03*
G01*
X3285000Y1362559D03*
G01*
X3285000Y1307440D03*
G01*
X3025000Y1362559D03*
G01*
X3025000Y1307440D03*
G01*
X3165000Y1362559D03*
G01*
X3165000Y1307440D03*
D18*
G01*
X1295000Y2386930D03*
G01*
X1295000Y2253069D03*
G01*
X975000Y2248069D03*
G01*
X975000Y2381930D03*
G36*
X2769449Y3267559D02*
G01*
X2816692Y3267559D01*
X2816692Y3212440D01*
X2769449Y3212440D01*
G37*
G36*
X2903307Y3267559D02*
G01*
X2950550Y3267559D01*
X2950550Y3212440D01*
X2903307Y3212440D01*
G37*
D17*
G01*
X2931930Y3545000D03*
G01*
X2798069Y3545000D03*
D25*
G01*
X5202129Y93260D03*
G01*
X5143029Y93260D03*
G01*
X5083930Y93260D03*
G01*
X5024930Y93260D03*
D26*
G01*
X4987299Y719059D03*
G01*
X4987299Y1132449D03*
G01*
X4602969Y719059D03*
G01*
X4602969Y1132449D03*
G01*
X5115420Y719059D03*
G01*
X5115420Y1132449D03*
G01*
X5243530Y719070D03*
G01*
X5243530Y1132460D03*
G36*
X2110799Y3261205D02*
G01*
X2110799Y3340005D01*
X2209200Y3340005D01*
X2209200Y3261205D01*
G37*
G36*
X1276886Y1582087D02*
G01*
X1198086Y1582087D01*
X1198086Y1680488D01*
X1276886Y1680488D01*
G37*
D29*
G01*
X1940000Y3400599D03*
G01*
X1137479Y1416289D03*
D30*
G01*
X2580000Y2800000D03*
D31*
G01*
X2480000Y2800000D03*
G01*
X2380000Y2800000D03*
G01*
X2280000Y2800000D03*
G01*
X2280000Y2500000D03*
G01*
X2380000Y2500000D03*
G01*
X2480000Y2500000D03*
G01*
X2580000Y2500000D03*
G36*
X1627060Y1706691D02*
G01*
X1697925Y1706691D01*
X1697925Y1635824D01*
X1627060Y1635824D01*
G37*
G01*
X1762489Y1671260D03*
G01*
X1862489Y1671260D03*
G01*
X1962489Y1671260D03*
G01*
X1962489Y1971260D03*
G01*
X1862489Y1971260D03*
G01*
X1762489Y1971260D03*
G01*
X1662489Y1971260D03*
G36*
X3542021Y3540005D02*
G01*
X3542021Y3461206D01*
X3443621Y3461206D01*
X3443621Y3540005D01*
G37*
G36*
X4442021Y3540005D02*
G01*
X4442021Y3461206D01*
X4343621Y3461206D01*
X4343621Y3540005D01*
G37*
G01*
X1596040Y2593899D03*
G01*
X1596040Y2956100D03*
G01*
X2278530Y567109D03*
G01*
X2278530Y204909D03*
G01*
X1831040Y2593899D03*
G01*
X1831040Y2956100D03*
G01*
X1661170Y723899D03*
G01*
X1661170Y1086100D03*
G01*
X1925000Y723899D03*
G01*
X1925000Y1086100D03*
G01*
X2578530Y567109D03*
G01*
X2578530Y204909D03*
G01*
X2728530Y567109D03*
G01*
X2728530Y204909D03*
G01*
X2128530Y567109D03*
G01*
X2128530Y204909D03*
G01*
X5098530Y1936399D03*
G01*
X5098530Y1574200D03*
G01*
X4748530Y1569659D03*
G01*
X4748530Y1931860D03*
G01*
X4908530Y2291860D03*
G01*
X4908530Y1929659D03*
G01*
X4868530Y2951860D03*
G01*
X4868530Y2589659D03*
G01*
X4867430Y3070760D03*
G01*
X5229629Y3070760D03*
G01*
X5228530Y2281399D03*
G01*
X5228530Y1919200D03*
G01*
X2428530Y567109D03*
G01*
X2428530Y204909D03*
G36*
X575864Y285785D02*
G01*
X678225Y285785D01*
X678225Y183422D01*
X575864Y183422D01*
G37*
D33*
G01*
X782960Y234600D03*
D34*
G01*
X3863710Y340630D03*
G01*
X3863710Y419369D03*
G01*
X3784970Y340630D03*
G01*
X3784970Y419369D03*
G01*
X3706229Y340630D03*
G01*
X3706229Y419369D03*
G01*
X3627489Y340630D03*
G01*
X3627489Y419369D03*
G01*
X3548750Y340630D03*
G01*
X3548750Y419369D03*
G01*
X3470010Y340630D03*
G01*
X3470010Y419369D03*
G01*
X3391270Y340630D03*
G01*
X3391270Y419369D03*
G01*
X3312529Y340630D03*
G01*
X3312529Y419369D03*
G01*
X3233789Y340630D03*
G01*
X3233789Y419369D03*
G01*
X3155050Y340630D03*
G01*
X3155050Y419369D03*
G01*
X3076310Y340630D03*
G36*
X3046770Y448897D02*
G01*
X3105826Y448897D01*
X3105826Y389841D01*
X3046770Y389841D01*
G37*
D25*
G01*
X4749629Y93260D03*
G01*
X4690529Y93260D03*
G01*
X4631430Y93260D03*
G01*
X4572430Y93260D03*
D26*
G01*
X4731080Y719059D03*
G01*
X4731080Y1132449D03*
G01*
X4859200Y719059D03*
G01*
X4859200Y1132449D03*
G01*
X3834309Y719059D03*
G01*
X3834309Y1132449D03*
G01*
X4474859Y719059D03*
G01*
X4474859Y1132449D03*
D25*
G01*
X4297129Y93260D03*
G01*
X4238029Y93260D03*
G01*
X4178930Y93260D03*
G01*
X4119930Y93260D03*
D26*
G01*
X3962420Y719059D03*
G01*
X3962420Y1132449D03*
G01*
X4218639Y719059D03*
G01*
X4218639Y1132449D03*
G01*
X4090529Y719059D03*
G01*
X4090529Y1132449D03*
G01*
X4346750Y719059D03*
G01*
X4346750Y1132449D03*
D36*
G01*
X3046869Y1132440D03*
G01*
X3046869Y719059D03*
G01*
X2918209Y1132440D03*
G01*
X2918209Y719059D03*
G01*
X3175529Y1132440D03*
G01*
X3175529Y719059D03*
G01*
X2789549Y1132440D03*
G01*
X2789549Y719059D03*
D37*
G01*
X2095000Y2390160D03*
G01*
X2095000Y2909839D03*
G01*
X2054840Y1495000D03*
G01*
X1535159Y1495000D03*
D38*
G01*
X897330Y2971849D03*
G01*
X897330Y2578150D03*
G01*
X1298930Y2578150D03*
G01*
X1298930Y2971849D03*
G01*
X1397330Y2775050D03*
G01*
X897330Y1101849D03*
G01*
X897330Y708150D03*
G01*
X1298930Y708150D03*
G01*
X1298930Y1101849D03*
G01*
X1397330Y905050D03*
D29*
G01*
X3712820Y3400599D03*
G01*
X4612820Y3400599D03*
D30*
G01*
X2358530Y2250760D03*
D31*
G01*
X2258530Y2250760D03*
G01*
X2158530Y2250760D03*
D30*
G01*
X2488530Y2002420D03*
D31*
G01*
X2388530Y2002420D03*
G01*
X2288530Y2002420D03*
D30*
G01*
X2628530Y1754090D03*
D31*
G01*
X2528530Y1754090D03*
G01*
X2428530Y1754090D03*
D30*
G01*
X2753530Y1505760D03*
D31*
G01*
X2653530Y1505760D03*
G01*
X2553530Y1505760D03*
D30*
G01*
X2235000Y1315000D03*
D31*
G01*
X2135000Y1315000D03*
G01*
X2035000Y1315000D03*
D39*
G01*
X3199549Y3640000D03*
G01*
X3140450Y3640000D03*
G01*
X3147240Y2896170D03*
G01*
X3206340Y2896170D03*
G01*
X4104729Y2896170D03*
G01*
X4163829Y2896170D03*
D40*
G01*
X4174369Y3640000D03*
G01*
X4095630Y3640000D03*
D26*
G01*
X3703959Y723000D03*
G01*
X3703959Y1128519D03*
G01*
X3571360Y723000D03*
G01*
X3571360Y1128519D03*
G01*
X3438760Y723000D03*
G01*
X3438760Y1128519D03*
G01*
X3306170Y1128519D03*
G01*
X3306170Y723000D03*
G01*
X2261130Y1128519D03*
G01*
X2261130Y723000D03*
G01*
X2393720Y1128519D03*
G01*
X2393720Y723000D03*
G01*
X2526319Y723000D03*
G01*
X2526319Y1128519D03*
G01*
X2658919Y723000D03*
G01*
X2658919Y1128519D03*
G01*
X2128530Y723000D03*
G01*
X2128530Y1128519D03*
D37*
G01*
X1552659Y2166260D03*
G01*
X2072340Y2166260D03*
G01*
X2780000Y2909839D03*
G01*
X2780000Y2390160D03*
D32*
G01*
X3380780Y2500000D03*
D33*
G01*
X3224859Y2500000D03*
D32*
G01*
X4147960Y2500000D03*
D33*
G01*
X3992039Y2500000D03*
D32*
G01*
X1635000Y351990D03*
D33*
G01*
X1635000Y196069D03*
D32*
G01*
X5565000Y142800D03*
D33*
G01*
X5565000Y298719D03*
D32*
G01*
X5565000Y514920D03*
D33*
G01*
X5565000Y670839D03*
D32*
G01*
X5565000Y1259169D03*
D33*
G01*
X5565000Y1415079D03*
D32*
G01*
X5565000Y887040D03*
D33*
G01*
X5565000Y1042950D03*
D32*
G01*
X5487049Y2532350D03*
D33*
G01*
X5487049Y2376430D03*
D32*
G01*
X5487049Y2904470D03*
D33*
G01*
X5487049Y2748550D03*
D32*
G01*
X5487049Y3276590D03*
D33*
G01*
X5487049Y3120670D03*
D32*
G01*
X5487049Y3648710D03*
D33*
G01*
X5487049Y3492800D03*
D32*
G01*
X5487049Y2160230D03*
D33*
G01*
X5487049Y2004310D03*
D32*
G01*
X5487049Y1788099D03*
D33*
G01*
X5487049Y1632190D03*
D41*
G01*
X2530000Y3545909D03*
D42*
G01*
X2530000Y3389989D03*
G01*
X2530000Y3234090D03*
D41*
G01*
X1293389Y1960000D03*
D42*
G01*
X1137470Y1960000D03*
G01*
X981570Y1960000D03*
D31*
G01*
X5208140Y3420760D03*
G01*
X4908930Y3420760D03*
G36*
X1007897Y3611181D02*
G01*
X1110259Y3611181D01*
X1110259Y3508818D01*
X1007897Y3508818D01*
G37*
D33*
G01*
X1214989Y3560010D03*
D32*
G01*
X199879Y2335200D03*
D33*
G01*
X199879Y2491109D03*
D32*
G01*
X199879Y717040D03*
D33*
G01*
X199890Y872950D03*
D32*
G01*
X199879Y1893890D03*
D33*
G01*
X199879Y2049800D03*
D43*
G01*
X170749Y3077159D03*
G01*
X170749Y3214949D03*
G01*
X170749Y1459000D03*
G01*
X170749Y1596790D03*
D32*
G01*
X199879Y3512040D03*
D33*
G01*
X199879Y3667950D03*
D12*
G01*
X5172600Y659400D03*
G01*
X3711099Y2054000D03*
G01*
X4297100Y379099D03*
G01*
X4136400Y375799D03*
G01*
X4859200Y379600D03*
G01*
X4386700Y123200D03*
G01*
X4138500Y470199D03*
G01*
X3989200Y214000D03*
G01*
X3735000Y215000D03*
G01*
X4191599Y421500D03*
G01*
X4190600Y650999D03*
G01*
X4013599Y434499D03*
G01*
X4093900Y1259200D03*
G01*
X2781099Y2726500D03*
G01*
X2425000Y1210000D03*
G01*
X2005000Y2453800D03*
G01*
X1821800Y1874400D03*
G01*
X4070000Y330000D03*
G01*
X4970000Y2555000D03*
G01*
X2306599Y2590599D03*
G01*
X3630000Y280000D03*
G01*
X5586499Y368899D03*
G01*
X4133800Y527600D03*
D14*
G01*
X2655000Y2190000D03*
D12*
G01*
X2704499Y1627699D03*
G01*
X2930140Y1456700D03*
D29*
X2150158Y3400599D02*
G01*
X2169841Y3400599D01*
X2150158Y3500599D02*
G01*
X2169841Y3500599D01*
X1137489Y1621446D02*
G01*
X1137489Y1641131D01*
X1037489Y1621446D02*
G01*
X1037489Y1641131D01*
X3502663Y3400610D02*
G01*
X3482978Y3400610D01*
X3502663Y3300610D02*
G01*
X3482978Y3300610D01*
X4402663Y3400610D02*
G01*
X4382978Y3400610D01*
X4402663Y3300610D02*
G01*
X4382978Y3300610D01*
X427040Y328701D02*
G01*
X427040Y226338D01*
X182959Y226338D02*
G01*
X182959Y328701D01*
X360120Y92469D02*
G01*
X257759Y92469D01*
M02*
