M48
INCH,LZ
;FILE_FORMAT=2:4
;TYPE=PLATED
;Layer: Drill PTH
;EasyEDA v6.4.12, 2021-01-10T11:05:15--5:00
;3145a8addab9457ba1f20b0dac4bbc5f,47ca9d6388974ffcabec7368213608ff,10
;Gerber Generator version 0.2
;Holesize 1 = 0.0150 inch
T01C0.0150
;Holesize 2 = 0.0200 inch
T02C0.0200
;Holesize 3 = 0.0320 inch
T03C0.0320
;Holesize 4 = 0.0350 inch
T04C0.0350
;Holesize 5 = 0.0350 inch
T05C0.0350
;Holesize 6 = 0.0360 inch
T06C0.0360
;Holesize 7 = 0.0390 inch
T07C0.0390
;Holesize 8 = 0.0430 inch
T08C0.0430
;Holesize 9 = 0.0470 inch
T09C0.0470
;Holesize 10 = 0.0550 inch
T10C0.0550
;Holesize 11 = 0.0590 inch
T11C0.0590
;Holesize 12 = 0.0630 inch
T12C0.0630
;Holesize 13 = 0.0710 inch
T13C0.0710
;Holesize 14 = 0.0750 inch
T14C0.0750
%
G05
G90
T01
X051726Y006594
X037111Y020540
X042971Y003791
X041364Y003758
X048592Y003796
X043867Y001232
X041385Y004702
X039892Y002140
X037350Y002150
X041916Y004215
X041906Y006510
X040136Y004345
X040939Y012592
X027811Y027265
X024250Y012100
X020050Y024538
X018218Y018744
X040700Y003300
X049700Y025550
X023066Y025906
X036300Y002800
X055865Y003689
X041338Y005276
X027045Y016277
X029301Y014567
T02
X026550Y021900
T03
X052021Y000933
X051430Y000933
X050839Y000933
X050249Y000933
X047496Y000933
X046905Y000933
X046314Y000933
X045724Y000933
X042971Y000933
X042380Y000933
X041789Y000933
X041199Y000933
X031995Y036400
X031405Y036400
X031472Y028962
X032063Y028962
X041047Y028962
X041638Y028962
X041744Y036400
X040956Y036400
T04
X030469Y011324
X030469Y007191
X029182Y011324
X029182Y007191
X031755Y011324
X031755Y007191
X027895Y011324
X027895Y007191
T05
X038637Y003406
X038637Y004194
X037850Y003406
X037850Y004194
X037062Y003406
X037062Y004194
X036275Y003406
X036275Y004194
X035487Y003406
X035487Y004194
X034700Y003406
X034700Y004194
X033913Y003406
X033913Y004194
X033125Y003406
X033125Y004194
X032338Y003406
X032338Y004194
X031550Y003406
X031550Y004194
X030763Y003406
X030763Y004194
T06
X049873Y007191
X049873Y011324
X046030Y007191
X046030Y011324
X051154Y007191
X051154Y011324
X052435Y007191
X052435Y011324
X047311Y007191
X047311Y011325
X048592Y007191
X048592Y011325
X038343Y007191
X038343Y011325
X044749Y007191
X044749Y011325
X039624Y007191
X039624Y011325
X042186Y007191
X042186Y011325
X040905Y007191
X040905Y011325
X043468Y007191
X043468Y011325
T07
X025800Y028000
X024800Y028000
X023800Y028000
X022800Y028000
X022800Y025000
X023800Y025000
X024800Y025000
X025800Y025000
X016625Y016713
X017625Y016713
X018625Y016713
X019625Y016713
X019625Y019713
X018625Y019713
X017625Y019713
X016625Y019713
X015960Y025939
X015960Y029561
X022785Y005671
X022785Y002049
X018310Y025939
X018310Y029561
X016612Y007239
X016612Y010861
X019250Y007239
X019250Y010861
X025785Y005671
X025785Y002049
X027285Y005671
X027285Y002049
X021285Y005671
X021285Y002049
X050985Y019364
X050985Y015742
X047485Y015697
X047485Y019319
X049085Y022919
X049085Y019297
X048685Y029519
X048685Y025897
X048674Y030708
X052296Y030708
X052285Y022814
X052285Y019192
X024285Y005671
X024285Y002049
X020950Y023902
X020950Y029098
X020548Y014950
X015352Y014950
X023585Y022508
X022585Y022508
X021585Y022508
X024885Y020024
X023885Y020024
X022885Y020024
X026285Y017541
X025285Y017541
X024285Y017541
X027535Y015058
X026535Y015058
X025535Y015058
X022350Y013150
X021350Y013150
X020350Y013150
X037040Y007230
X037040Y011285
X035714Y007230
X035714Y011285
X034388Y007230
X034388Y011285
X033062Y011285
X033062Y007230
X022611Y011285
X022611Y007230
X023937Y011285
X023937Y007230
X025263Y007230
X025263Y011285
X026589Y007230
X026589Y011285
X021285Y007230
X021285Y011285
X015527Y021663
X020723Y021663
X027800Y029098
X027800Y023902
X052081Y034208
X049089Y034208
T08
X001707Y030772
X001707Y032149
X001707Y014590
X001707Y015968
T09
X004270Y002283G85X004270Y003267
X001830Y003267G85X001830Y002283
X002597Y000925G85X003582Y000925
T10
X021600Y034006
X021600Y035006
X021600Y033006
X011375Y016313
X010375Y016313
X012375Y016313
X034928Y034006
X034928Y033006
X034928Y035006
X043928Y034006
X043928Y033006
X043928Y035006
T11
X019400Y034006
X011375Y014163
X037128Y034006
X046128Y034006
T12
X008973Y029718
X008973Y025782
X012989Y025782
X012989Y029718
X013973Y027751
X008973Y011018
X008973Y007082
X012989Y007082
X012989Y011018
X013973Y009051
T13
X006270Y002346
X007830Y002346
X033808Y025000
X032249Y025000
X041480Y025000
X039920Y025000
X016350Y003520
X016350Y001961
X055650Y001428
X055650Y002987
X055650Y005149
X055650Y006708
X055650Y012592
X055650Y014151
X055650Y008870
X055650Y010430
X054870Y025323
X054870Y023764
X054870Y029045
X054870Y027486
X054870Y032766
X054870Y031207
X054870Y036487
X054870Y034928
X054870Y021602
X054870Y020043
X054870Y017881
X054870Y016322
X010591Y035600
X012150Y035600
X001999Y023352
X001999Y024911
X001999Y007170
X001999Y008730
X001999Y018939
X001999Y020498
X001999Y035120
X001999Y036680
T14
X025300Y035459
X025300Y033900
X025300Y032341
X012934Y019600
X011375Y019600
X009816Y019600
M30
