G04 Layer: BottomLayer*
G04 EasyEDA v6.4.12, 2021-01-10T11:05:15--5:00*
G04 3145a8addab9457ba1f20b0dac4bbc5f,47ca9d6388974ffcabec7368213608ff,10*
G04 Gerber Generator version 0.2*
G04 Scale: 100 percent, Rotated: No, Reflected: No *
G04 Dimensions in inches *
G04 leading zeros omitted , absolute positions ,3 integer and 6 decimal *
%FSLAX36Y36*%
%MOIN*%

%ADD11C,0.0150*%
%ADD12C,0.0250*%
%ADD13C,0.0200*%
%ADD14C,0.0400*%
%ADD15C,0.0800*%
%ADD25C,0.0472*%
%ADD26C,0.0600*%
%ADD29C,0.0787*%
%ADD30R,0.0709X0.0709*%
%ADD31C,0.0709*%
%ADD32R,0.1024X0.1024*%
%ADD33C,0.1024*%
%ADD34C,0.0591*%
%ADD36C,0.0740*%
%ADD37C,0.0630*%
%ADD38C,0.0984*%
%ADD39C,0.0472*%
%ADD40C,0.0512*%
%ADD41R,0.1102X0.1102*%
%ADD42C,0.1102*%
%ADD43C,0.0669*%

%LPD*%
G36*
X4579400Y753240D02*
G01*
X4568780Y742640D01*
X4573020Y717180D01*
X4604860Y749000D01*
G37*
G36*
X5221020Y699240D02*
G01*
X5236000Y678240D01*
X5251000Y678220D01*
X5266020Y699220D01*
G37*
G36*
X5267060Y1166680D02*
G01*
X5241620Y1162400D01*
X5273480Y1130620D01*
X5277680Y1156080D01*
G37*
G36*
X2468400Y2847540D02*
G01*
X2453400Y2841060D01*
X2446320Y2811000D01*
X2495120Y2832040D01*
G37*
G36*
X2453420Y2776560D02*
G01*
X2472500Y2751760D01*
X2487500Y2751760D01*
X2506580Y2776560D01*
G37*
G36*
X2344640Y2802220D02*
G01*
X2337060Y2774720D01*
X2354720Y2757060D01*
X2382220Y2764640D01*
G37*
G36*
X2408800Y2539420D02*
G01*
X2377780Y2535360D01*
X2415360Y2497780D01*
X2419420Y2528800D01*
G37*
G36*
X2505280Y2542940D02*
G01*
X2477780Y2535360D01*
X2515360Y2497780D01*
X2522940Y2525280D01*
G37*
G36*
X1619480Y2620480D02*
G01*
X1619480Y2567320D01*
X1644280Y2586400D01*
X1644280Y2601400D01*
G37*
G36*
X1631399Y2958300D02*
G01*
X1593800Y2920740D01*
X1624840Y2916680D01*
X1635440Y2927280D01*
G37*
G36*
X2268600Y615000D02*
G01*
X2253600Y609180D01*
X2245280Y579360D01*
X2294840Y598560D01*
G37*
G36*
X2307320Y244340D02*
G01*
X2276300Y240280D01*
X2313900Y202700D01*
X2317940Y233720D01*
G37*
G36*
X1807600Y2620480D02*
G01*
X1782800Y2601400D01*
X1782800Y2586400D01*
X1807600Y2567320D01*
G37*
G36*
X1866399Y2958300D02*
G01*
X1828800Y2920740D01*
X1859820Y2916680D01*
X1870440Y2927280D01*
G37*
G36*
X1919960Y1134660D02*
G01*
X1899640Y1110860D01*
X1952720Y1108160D01*
X1934940Y1133900D01*
G37*
G36*
X2549700Y606500D02*
G01*
X2539100Y595900D01*
X2543160Y564860D01*
X2580720Y602480D01*
G37*
G36*
X2699700Y606500D02*
G01*
X2689100Y595900D01*
X2693159Y564880D01*
X2730720Y602480D01*
G37*
G36*
X2136000Y615360D02*
G01*
X2121000Y615340D01*
X2101940Y590520D01*
X2155100Y590560D01*
G37*
G36*
X5063700Y1929900D02*
G01*
X5067140Y1898959D01*
X5080420Y1891020D01*
X5109320Y1902640D01*
G37*
G36*
X4777300Y1609100D02*
G01*
X4746280Y1605020D01*
X4783900Y1567480D01*
X4787920Y1598500D01*
G37*
G36*
X4713160Y1934100D02*
G01*
X4709100Y1903080D01*
X4719700Y1892460D01*
X4750720Y1896500D01*
G37*
G36*
X4937300Y1969100D02*
G01*
X4906280Y1965020D01*
X4943900Y1927480D01*
X4947920Y1958500D01*
G37*
G36*
X4896200Y3110200D02*
G01*
X4865180Y3106120D01*
X4902800Y3068580D01*
X4906820Y3099600D01*
G37*
G36*
X5215599Y3117660D02*
G01*
X5200599Y3110179D01*
X5195380Y3079880D01*
X5242960Y3103600D01*
G37*
G36*
X2399700Y606500D02*
G01*
X2389100Y595900D01*
X2393160Y564880D01*
X2430720Y602480D01*
G37*
G36*
X3886800Y453120D02*
G01*
X3861840Y448840D01*
X3893180Y417540D01*
X3897420Y442520D01*
G37*
G36*
X3814440Y342480D02*
G01*
X3783120Y311160D01*
X3808100Y306900D01*
X3818700Y317500D01*
G37*
G36*
X3777480Y459560D02*
G01*
X3762820Y438900D01*
X3807120Y438900D01*
X3792480Y459560D01*
G37*
G36*
X3656960Y342480D02*
G01*
X3625640Y311160D01*
X3650620Y306900D01*
X3661220Y317500D01*
G37*
G36*
X3184520Y342480D02*
G01*
X3153200Y311160D01*
X3178180Y306900D01*
X3188780Y317500D01*
G37*
G36*
X3131920Y453100D02*
G01*
X3121320Y442500D01*
X3125580Y417520D01*
X3156900Y448840D01*
G37*
G36*
X3105779Y342480D02*
G01*
X3074460Y311160D01*
X3099440Y306900D01*
X3110040Y317500D01*
G37*
G36*
X4707920Y121320D02*
G01*
X4689020Y116840D01*
X4714100Y91820D01*
X4718560Y110740D01*
G37*
G36*
X4614000Y121300D02*
G01*
X4603400Y110700D01*
X4607860Y91780D01*
X4632920Y116840D01*
G37*
G36*
X4596000Y94740D02*
G01*
X4570960Y69680D01*
X4589880Y65220D01*
X4600480Y75820D01*
G37*
G36*
X4753580Y699220D02*
G01*
X4708580Y699200D01*
X4723600Y678220D01*
X4738600Y678220D01*
G37*
G36*
X4836700Y699220D02*
G01*
X4851700Y678220D01*
X4866700Y678220D01*
X4881700Y699220D01*
G37*
G36*
X4889140Y1134300D02*
G01*
X4857300Y1102520D01*
X4882740Y1098240D01*
X4893360Y1108840D01*
G37*
G36*
X4497380Y699240D02*
G01*
X4452380Y699200D01*
X4467400Y678199D01*
X4482400Y678220D01*
G37*
G36*
X4467400Y1173300D02*
G01*
X4452380Y1152320D01*
X4497380Y1152280D01*
X4482400Y1173280D01*
G37*
G36*
X4304600Y125420D02*
G01*
X4289600Y125399D01*
X4279400Y108859D01*
X4314820Y108900D01*
G37*
G36*
X4245500Y125420D02*
G01*
X4230500Y125399D01*
X4220300Y108859D01*
X4255740Y108900D01*
G37*
G36*
X4130000Y125079D02*
G01*
X4113620Y116020D01*
X4143300Y96660D01*
X4145000Y115300D01*
G37*
G36*
X4196120Y699240D02*
G01*
X4211100Y678220D01*
X4226100Y678199D01*
X4241120Y699200D01*
G37*
G36*
X4120480Y1134320D02*
G01*
X4088639Y1102520D01*
X4114100Y1098260D01*
X4124700Y1108860D01*
G37*
G36*
X4369280Y699240D02*
G01*
X4324280Y699180D01*
X4339300Y678199D01*
X4354300Y678220D01*
G37*
G36*
X3034400Y1182820D02*
G01*
X3019140Y1156920D01*
X3074640Y1156900D01*
X3059400Y1182800D01*
G37*
G36*
X2954740Y1126580D02*
G01*
X2907840Y1096920D01*
X2938639Y1085760D01*
X2951640Y1093980D01*
G37*
G36*
X3205860Y1173360D02*
G01*
X3173220Y1169360D01*
X3212460Y1130120D01*
X3216460Y1162760D01*
G37*
G36*
X2819920Y1173320D02*
G01*
X2787280Y1169360D01*
X2826480Y1130080D01*
X2830500Y1162700D01*
G37*
G36*
X2082500Y2433040D02*
G01*
X2071380Y2411000D01*
X2118620Y2411000D01*
X2107500Y2433040D01*
G37*
G36*
X2116500Y2948980D02*
G01*
X2093040Y2941280D01*
X2126440Y2907840D01*
X2134180Y2931300D01*
G37*
G36*
X1514319Y1518620D02*
G01*
X1492280Y1507500D01*
X1492280Y1482500D01*
X1514319Y1471380D01*
G37*
G36*
X864040Y3033340D02*
G01*
X835780Y3005040D01*
X848220Y2968720D01*
X900360Y3020960D01*
G37*
G36*
X1417300Y2842060D02*
G01*
X1377300Y2842040D01*
X1360400Y2807580D01*
X1434220Y2807620D01*
G37*
G36*
X864040Y1163340D02*
G01*
X835780Y1135040D01*
X848220Y1098740D01*
X900380Y1150960D01*
G37*
G36*
X1417300Y972060D02*
G01*
X1377300Y972039D01*
X1360400Y937580D01*
X1434220Y937620D01*
G37*
G36*
X2293900Y2252980D02*
G01*
X2256320Y2215400D01*
X2287340Y2211360D01*
X2297940Y2221960D01*
G37*
G36*
X2356720Y1986819D02*
G01*
X2368300Y1957940D01*
X2383300Y1953839D01*
X2407980Y1972800D01*
G37*
G36*
X2493160Y1756339D02*
G01*
X2496600Y1732800D01*
X2507200Y1722200D01*
X2530720Y1718720D01*
G37*
G36*
X2626940Y1482340D02*
G01*
X2646000Y1457520D01*
X2661000Y1457520D01*
X2680100Y1482300D01*
G37*
G36*
X2108420Y1291560D02*
G01*
X2127500Y1266760D01*
X2142500Y1266760D01*
X2161580Y1291560D01*
G37*
G36*
X3219660Y3627600D02*
G01*
X3184740Y3621600D01*
X3192500Y3606160D01*
X3217500Y3610460D01*
G37*
G36*
X3116940Y3642260D02*
G01*
X3103300Y3632620D01*
X3130640Y3603420D01*
X3141139Y3616380D01*
G37*
G36*
X3120700Y3671060D02*
G01*
X3122860Y3655760D01*
X3158300Y3655480D01*
X3160700Y3670740D01*
G37*
G36*
X3134740Y2928320D02*
G01*
X3129520Y2911800D01*
X3164960Y2911800D01*
X3159740Y2928320D01*
G37*
G36*
X3168200Y2885260D02*
G01*
X3133800Y2876740D01*
X3145260Y2862540D01*
X3164680Y2867360D01*
G37*
G36*
X3123660Y2897640D02*
G01*
X3110360Y2887580D01*
X3138639Y2859280D01*
X3148720Y2872600D01*
G37*
G36*
X3216300Y2928340D02*
G01*
X3196300Y2928320D01*
X3188600Y2911780D01*
X3224040Y2911820D01*
G37*
G36*
X4105700Y2929240D02*
G01*
X4091760Y2915899D01*
X4125940Y2906580D01*
X4120700Y2925140D01*
G37*
G36*
X4086540Y2881100D02*
G01*
X4093440Y2864340D01*
X4114000Y2863700D01*
X4121960Y2880000D01*
G37*
G36*
X4171300Y2928340D02*
G01*
X4156300Y2928320D01*
X4146100Y2911780D01*
X4181540Y2911820D01*
G37*
G36*
X4209220Y3660000D02*
G01*
X4191300Y3659200D01*
X4191300Y3620800D01*
X4209220Y3620000D01*
G37*
G36*
X4120740Y3635059D02*
G01*
X4087600Y3615700D01*
X4105700Y3605539D01*
X4120700Y3614300D01*
G37*
G36*
X4120960Y3643660D02*
G01*
X4096080Y3614420D01*
X4117300Y3611700D01*
X4127040Y3623159D01*
G37*
G36*
X3733700Y726960D02*
G01*
X3704180Y693000D01*
X3729860Y690540D01*
X3739720Y701880D01*
G37*
G36*
X3448900Y763420D02*
G01*
X3427040Y750620D01*
X3467620Y731180D01*
X3463900Y756240D01*
G37*
G36*
X3335920Y1132480D02*
G01*
X3306380Y1098520D01*
X3332060Y1096040D01*
X3341920Y1107380D01*
G37*
G36*
X2284700Y1162700D02*
G01*
X2259240Y1158460D01*
X2291060Y1126640D01*
X2295300Y1152100D01*
G37*
G36*
X2238620Y703180D02*
G01*
X2253600Y682159D01*
X2268600Y682159D01*
X2283620Y703139D01*
G37*
G36*
X2383300Y1168880D02*
G01*
X2368300Y1161560D01*
X2364800Y1136480D01*
X2405240Y1156220D01*
G37*
G36*
X2371220Y703160D02*
G01*
X2386200Y682159D01*
X2401200Y682159D01*
X2416220Y703139D01*
G37*
G36*
X2503800Y703160D02*
G01*
X2518800Y682159D01*
X2533800Y682159D01*
X2548800Y703139D01*
G37*
G36*
X2528180Y1158460D02*
G01*
X2507200Y1158200D01*
X2496600Y1147600D01*
X2496380Y1126620D01*
G37*
G36*
X2636420Y703160D02*
G01*
X2651400Y682159D01*
X2666400Y682159D01*
X2681420Y703139D01*
G37*
G36*
X2661000Y1170000D02*
G01*
X2646000Y1168000D01*
X2633980Y1145200D01*
X2678580Y1151180D01*
G37*
G36*
X2106020Y703180D02*
G01*
X2121000Y682159D01*
X2136000Y682159D01*
X2151020Y703139D01*
G37*
G36*
X2127500Y1170060D02*
G01*
X2109460Y1151680D01*
X2153880Y1144540D01*
X2142500Y1167640D01*
G37*
G36*
X2756380Y2889000D02*
G01*
X2767500Y2866960D01*
X2792500Y2866960D01*
X2803620Y2889000D01*
G37*
G36*
X2796160Y2434640D02*
G01*
X2778000Y2421600D01*
X2811440Y2388200D01*
X2824460Y2406360D01*
G37*
G36*
X3232500Y2570020D02*
G01*
X3196300Y2542460D01*
X3270560Y2523040D01*
X3252500Y2564800D01*
G37*
G36*
X4002100Y2569380D02*
G01*
X3963420Y2542440D01*
X4037720Y2523080D01*
X4017100Y2565480D01*
G37*
G36*
X1677140Y265760D02*
G01*
X1647160Y245780D01*
X1682800Y177780D01*
X1716300Y191060D01*
G37*
G36*
X5551600Y348120D02*
G01*
X5506000Y336620D01*
X5499000Y322400D01*
X5517660Y279240D01*
G37*
G36*
X5435960Y2379620D02*
G01*
X5432500Y2332440D01*
X5443099Y2321840D01*
X5490280Y2325360D01*
G37*
G36*
X5531060Y2430960D02*
G01*
X5483880Y2427520D01*
X5538120Y2373180D01*
X5541660Y2420360D01*
G37*
G36*
X5531079Y2803080D02*
G01*
X5483900Y2799640D01*
X5538120Y2745299D01*
X5541660Y2792460D01*
G37*
G36*
X5538140Y2751760D02*
G01*
X5483840Y2697460D01*
X5531020Y2693980D01*
X5541620Y2704580D01*
G37*
G36*
X5531020Y3175240D02*
G01*
X5483860Y3171760D01*
X5538140Y3117460D01*
X5541640Y3164620D01*
G37*
G36*
X5538120Y3123920D02*
G01*
X5483880Y3069580D01*
X5531060Y3066139D01*
X5541660Y3076740D01*
G37*
G36*
X5538120Y3496040D02*
G01*
X5483880Y3441720D01*
X5531040Y3438240D01*
X5541640Y3448860D01*
G37*
G36*
X2475000Y3393440D02*
G01*
X2471640Y3342240D01*
X2482240Y3331640D01*
X2533440Y3334980D01*
G37*
G36*
X5181540Y3397340D02*
G01*
X5200599Y3372520D01*
X5215599Y3372520D01*
X5234700Y3397300D01*
G37*
G36*
X4882340Y3397340D02*
G01*
X4901400Y3372520D01*
X4916400Y3372520D01*
X4935500Y3397300D01*
G37*
G36*
X1266080Y3563220D02*
G01*
X1211780Y3508920D01*
X1250120Y3496600D01*
X1278400Y3524880D01*
G37*
G36*
X192920Y3240020D02*
G01*
X192860Y3189820D01*
X216280Y3194900D01*
X216340Y3234900D01*
G37*
G36*
X194600Y1631200D02*
G01*
X168680Y1630180D01*
X204140Y1594680D01*
X205200Y1620600D01*
G37*
G36*
X5185080Y660180D02*
G01*
X5171820Y646919D01*
X5179320Y642060D01*
X5189940Y652660D01*
G37*
G36*
X3698620Y2054780D02*
G01*
X3693759Y2047260D01*
X3704360Y2036660D01*
X3711880Y2041519D01*
G37*
G36*
X4287720Y370840D02*
G01*
X4289600Y362080D01*
X4304600Y362080D01*
X4306480Y370840D01*
G37*
G36*
X4303840Y396420D02*
G01*
X4296320Y391580D01*
X4309580Y378300D01*
X4314440Y385820D01*
G37*
G36*
X4144660Y385180D02*
G01*
X4144660Y366420D01*
X4153420Y368300D01*
X4153420Y383300D01*
G37*
G36*
X4851700Y396620D02*
G01*
X4849820Y387860D01*
X4868580Y387860D01*
X4866700Y396620D01*
G37*
G36*
X4849820Y371340D02*
G01*
X4851700Y362580D01*
X4866700Y362580D01*
X4868580Y371340D01*
G37*
G36*
X4393420Y140540D02*
G01*
X4385920Y135680D01*
X4399180Y122420D01*
X4404040Y129940D01*
G37*
G36*
X4126019Y471000D02*
G01*
X4121160Y463480D01*
X4131760Y452860D01*
X4139280Y457720D01*
G37*
G36*
X3989200Y232960D02*
G01*
X3984420Y225560D01*
X4001259Y217280D01*
X4004200Y225600D01*
G37*
G36*
X3747480Y215780D02*
G01*
X3734220Y202520D01*
X3741740Y197659D01*
X3752340Y208260D01*
G37*
G36*
X4198100Y438920D02*
G01*
X4183100Y438040D01*
X4181760Y429200D01*
X4200480Y430300D01*
G37*
G36*
X4183340Y430880D02*
G01*
X4174580Y429000D01*
X4174580Y414000D01*
X4183340Y412120D01*
G37*
G36*
X4181220Y642740D02*
G01*
X4183100Y633980D01*
X4198100Y633980D01*
X4199980Y642740D01*
G37*
G36*
X4001120Y435280D02*
G01*
X3996259Y427760D01*
X4006860Y417160D01*
X4014380Y422020D01*
G37*
G36*
X4081420Y1259980D02*
G01*
X4076560Y1252460D01*
X4087180Y1241860D01*
X4094680Y1246720D01*
G37*
G36*
X2771720Y2718240D02*
G01*
X2773600Y2709480D01*
X2788600Y2709480D01*
X2790480Y2718240D01*
G37*
G36*
X2431740Y1227340D02*
G01*
X2424220Y1222480D01*
X2437480Y1209220D01*
X2442340Y1216740D01*
G37*
G36*
X1998260Y2471140D02*
G01*
X1987660Y2460520D01*
X1992520Y2453020D01*
X2005780Y2466280D01*
G37*
G36*
X4082480Y330780D02*
G01*
X4069220Y317520D01*
X4076740Y312660D01*
X4087340Y323260D01*
G37*
G36*
X4981400Y2549860D02*
G01*
X4963460Y2544340D01*
X4967500Y2536420D01*
X4982500Y2541040D01*
G37*
G36*
X2296020Y2597260D02*
G01*
X2287860Y2593980D01*
X2292700Y2577600D01*
X2301320Y2579260D01*
G37*
G36*
X3621740Y289380D02*
G01*
X3612980Y287500D01*
X3612980Y272500D01*
X3621740Y270620D01*
G37*
G36*
X5578240Y378280D02*
G01*
X5569480Y376400D01*
X5569480Y361400D01*
X5578240Y359520D01*
G37*
G36*
X4128200Y545360D02*
G01*
X4125400Y536860D01*
X4144040Y534760D01*
X4143200Y543660D01*
G37*
G36*
X2712760Y1637080D02*
G01*
X2712760Y1618320D01*
X2721520Y1620200D01*
X2721520Y1635200D01*
G37*
G36*
X2923420Y1474040D02*
G01*
X2912799Y1463420D01*
X2917660Y1455920D01*
X2930920Y1469180D01*
G37*
G36*
X2128760Y3261200D02*
G01*
X2147500Y3223700D01*
X2172500Y3223700D01*
X2191260Y3261200D01*
G37*
G36*
X1276880Y1662540D02*
G01*
X1276880Y1600040D01*
X1296900Y1618800D01*
X1296900Y1643800D01*
G37*
G36*
X3472799Y3587500D02*
G01*
X3443620Y3540000D01*
X3542020Y3540000D01*
X3512799Y3587500D01*
G37*
G36*
X4372800Y3587500D02*
G01*
X4343620Y3540000D01*
X4442020Y3540000D01*
X4412800Y3587500D01*
G37*
G36*
X2469760Y1967000D02*
G01*
X2481000Y1951900D01*
X2496000Y1951900D01*
X2507260Y1967000D01*
G37*
G36*
X2227500Y1365500D02*
G01*
X2216260Y1350440D01*
X2253760Y1350440D01*
X2242500Y1365500D01*
G37*
G36*
X1595000Y450700D02*
G01*
X1583820Y403160D01*
X1686180Y403160D01*
X1675000Y450700D01*
G37*
G36*
X5510980Y216480D02*
G01*
X5514840Y193980D01*
X5552340Y193980D01*
X5528579Y216480D01*
G37*
G36*
X5435860Y2923240D02*
G01*
X5413360Y2912000D01*
X5413360Y2897000D01*
X5435860Y2885740D01*
G37*
G36*
X5468339Y3225419D02*
G01*
X5479600Y3210299D01*
X5494600Y3210299D01*
X5505839Y3225419D01*
G37*
G36*
X5435860Y3679960D02*
G01*
X5398360Y3661200D01*
X5398360Y3636200D01*
X5435860Y3617460D01*
G37*
G36*
X1007900Y3578759D02*
G01*
X992800Y3567500D01*
X992800Y3552500D01*
X1007900Y3541259D01*
G37*
G36*
X149900Y1842700D02*
G01*
X179899Y1782700D01*
X219899Y1782700D01*
X249899Y1842700D01*
G37*
G36*
X1176860Y1621459D02*
G01*
X1098120Y1621440D01*
X1117500Y1561440D01*
X1157500Y1561459D01*
G37*
G36*
X3447780Y3282960D02*
G01*
X3421620Y3243560D01*
X3445600Y3239260D01*
X3492820Y3261240D01*
G37*
G36*
X4353020Y3426139D02*
G01*
X4328960Y3421240D01*
X4325240Y3403740D01*
X4345220Y3389460D01*
G37*
G36*
X4346880Y3284880D02*
G01*
X4341860Y3260260D01*
X4353760Y3250960D01*
X4376440Y3261780D01*
G37*
G36*
X222320Y226340D02*
G01*
X218600Y176200D01*
X233100Y182900D01*
G37*
G36*
X240460Y154340D02*
G01*
X254800Y131720D01*
X292300Y131840D01*
X261660Y154340D01*
G37*
G36*
X1192480Y1963460D02*
G01*
X1134040Y1904980D01*
X1185240Y1901639D01*
X1195840Y1912260D01*
G37*
G36*
X1733720Y1710700D02*
G01*
X1723100Y1700100D01*
X1727120Y1669060D01*
X1764740Y1706620D01*
G37*
G36*
X1695580Y1958560D02*
G01*
X1645760Y1940020D01*
X1667100Y1921500D01*
X1691540Y1930600D01*
G37*
G36*
X1945720Y1718180D02*
G01*
X1925040Y1704139D01*
X1927340Y1675700D01*
X1971300Y1705580D01*
G37*
G36*
X1814300Y1891420D02*
G01*
X1812420Y1882660D01*
X1831180Y1882660D01*
X1829300Y1891420D01*
G37*
G36*
X1827120Y1973460D02*
G01*
X1823100Y1942420D01*
X1833720Y1931819D01*
X1864740Y1935900D01*
G37*
G36*
X1582660Y2175880D02*
G01*
X1558460Y2135300D01*
X1582900Y2133220D01*
X1596100Y2155380D01*
G37*
G36*
X1737240Y2014220D02*
G01*
X1719560Y1996560D01*
X1727120Y1969060D01*
X1764740Y2006620D01*
G37*
G36*
X5017240Y720960D02*
G01*
X4985440Y689120D01*
X5010900Y684880D01*
X5021500Y695500D01*
G37*
G36*
X5209600Y125420D02*
G01*
X5194600Y125399D01*
X5184400Y108859D01*
X5219820Y108900D01*
G37*
G36*
X5092920Y699220D02*
G01*
X5107900Y678220D01*
X5122900Y678220D01*
X5137920Y699200D01*
G37*
G36*
X5160000Y95000D02*
G01*
X5130000Y70000D01*
X5153900Y60519D01*
X5164520Y71100D01*
G37*
G36*
X5060000Y90000D02*
G01*
X5055500Y71100D01*
X5066100Y60480D01*
X5085020Y64900D01*
G37*
D15*
X1635000Y450700D02*
G01*
X1570000Y515700D01*
X1570000Y1210000D01*
X1955000Y1595000D01*
X1962500Y1671300D01*
D12*
X1662500Y1971300D02*
G01*
X1662500Y1948499D01*
X1770000Y1805000D01*
X1875000Y1800000D01*
X1962489Y1671260D01*
D14*
X897299Y1101799D02*
G01*
X373299Y1625900D01*
X199899Y1625900D01*
D13*
X3206300Y2896199D02*
G01*
X3206300Y3014099D01*
X3492799Y3300599D01*
D12*
X3147240Y2896170D02*
G01*
X3147240Y3447240D01*
X3205000Y3505000D01*
X3205000Y3634549D01*
X3199549Y3640000D01*
D11*
X4122299Y2882600D02*
G01*
X4113199Y2891700D01*
X4113199Y3626399D01*
D13*
X3242500Y2486399D02*
G01*
X3242500Y2747500D01*
X3164799Y2825200D01*
X3147240Y2896170D01*
D11*
X1925000Y1086100D02*
G01*
X1945000Y1480000D01*
X2150000Y1675000D01*
X2155000Y2155000D01*
X2095500Y2233800D01*
X2095500Y2322300D01*
X2095500Y2322300D01*
D15*
X2070000Y1780000D02*
G01*
X1962489Y1671260D01*
X1962500Y1671300D01*
X2072299Y2166300D02*
G01*
X2072299Y1961300D01*
X2070000Y1780000D01*
D14*
X2780000Y2390200D02*
G01*
X2861599Y2471799D01*
X2861599Y3379000D01*
X3140450Y3640000D01*
X3129799Y3640000D01*
X3140399Y3640000D02*
G01*
X3140699Y3670900D01*
X3184099Y3713800D01*
X3366599Y3713800D01*
X3492799Y3587500D01*
D11*
X5565000Y298699D02*
G01*
X5533299Y298699D01*
X5172600Y659400D01*
X2128500Y1128499D02*
G01*
X2135000Y1135000D01*
X2135000Y1315000D01*
X2658900Y1128499D02*
G01*
X2653500Y1133899D01*
X2653500Y1505799D01*
X2261099Y1128499D02*
G01*
X2339499Y1206900D01*
X2339499Y2169800D01*
X2258500Y2250799D01*
X2789600Y1132399D02*
G01*
X3711099Y2054000D01*
X3175500Y1132399D02*
G01*
X4581599Y2538499D01*
X4909300Y2538499D01*
X5275200Y2904499D01*
X5487100Y2904499D01*
X5487100Y3276599D02*
G01*
X5487100Y3210300D01*
X4297100Y379099D02*
G01*
X4297100Y93299D01*
X4346800Y719099D02*
G01*
X4346800Y428699D01*
X4297100Y379099D01*
X4218599Y719099D02*
G01*
X4218599Y375799D01*
X4218599Y375799D02*
G01*
X4136400Y375799D01*
X4859200Y719099D02*
G01*
X4859200Y379600D01*
X4859200Y379600D02*
G01*
X4859200Y261900D01*
X4690500Y93299D01*
X4138500Y470199D02*
G01*
X4069399Y401199D01*
X4046999Y401199D01*
X3996700Y350900D01*
X3996700Y221500D01*
X3989200Y214000D01*
X4190600Y650999D02*
G01*
X4190600Y422600D01*
X4191599Y421500D01*
X2393699Y723000D02*
G01*
X2393699Y601900D01*
X2428500Y567100D01*
X5208100Y3420799D02*
G01*
X5208100Y3092199D01*
X5229600Y3070799D01*
X2235000Y1315000D02*
G01*
X2235000Y1365500D01*
X4908900Y3420799D02*
G01*
X4908900Y3112300D01*
X4867399Y3070799D01*
X4748500Y1569699D02*
G01*
X5098500Y1919699D01*
X5098500Y1936399D01*
X2128500Y723000D02*
G01*
X2128500Y567100D01*
X2658900Y723000D02*
G01*
X2658900Y636700D01*
X2728500Y567100D01*
X2526300Y723000D02*
G01*
X2526300Y619299D01*
X2578500Y567100D01*
X2261099Y723000D02*
G01*
X2261099Y584499D01*
X2278500Y567100D01*
X170799Y1596799D02*
G01*
X199899Y1625900D01*
D14*
X199899Y1625900D02*
G01*
X199899Y1893899D01*
D11*
X1059099Y3560000D02*
G01*
X992799Y3560000D01*
D14*
X992799Y3560000D02*
G01*
X992799Y3553600D01*
X654200Y3214899D01*
X170799Y3214899D02*
G01*
X654200Y3214899D01*
X654200Y3214899D02*
G01*
X897299Y2971799D01*
D11*
X2005000Y2453800D02*
G01*
X1927600Y2531199D01*
X1927600Y2624600D01*
X1596000Y2956100D01*
X1831000Y2593899D02*
G01*
X1596000Y2593899D01*
X4163800Y2896199D02*
G01*
X4163800Y3071599D01*
X4392799Y3300599D01*
D12*
X1552700Y2166300D02*
G01*
X1567500Y2166300D01*
X1762500Y1971300D01*
D11*
X1862500Y1971300D02*
G01*
X1821800Y1930500D01*
X1821800Y1874400D01*
X1137500Y1960000D02*
G01*
X1341099Y1756399D01*
X1677399Y1756399D01*
X1762500Y1671300D01*
D12*
X2780000Y2909800D02*
G01*
X2780000Y2800000D01*
X2480000Y2500000D01*
D14*
X4174399Y3640000D02*
G01*
X4340400Y3640000D01*
X4392799Y3587500D01*
X4392799Y3500599D02*
G01*
X4392799Y3587500D01*
X3492799Y3500599D02*
G01*
X3492799Y3587500D01*
D15*
X1635000Y351999D02*
G01*
X1635000Y450700D01*
D12*
X2095000Y2390200D02*
G01*
X2095000Y2515000D01*
X2380000Y2800000D01*
D11*
X2530000Y3390000D02*
G01*
X2460900Y3320900D01*
X2460900Y2819099D01*
X2480000Y2800000D01*
X2380000Y2500000D02*
G01*
X2480000Y2600000D01*
X2480000Y2800000D01*
D12*
X1535200Y1495000D02*
G01*
X1433199Y1495000D01*
X1296899Y1631300D01*
X1237500Y1631300D02*
G01*
X1296899Y1631300D01*
X2095000Y2909800D02*
G01*
X2160000Y2974800D01*
X2160000Y3300599D01*
D14*
X1397299Y2775000D02*
G01*
X1397299Y3377700D01*
X1215000Y3560000D01*
D11*
X326500Y78899D02*
G01*
X200599Y204800D01*
X200599Y263899D01*
X3323800Y1114899D02*
G01*
X3456400Y982300D01*
X3456400Y709400D01*
X3721602Y709398D02*
G01*
X3784970Y646030D01*
X3784970Y419369D01*
X4113199Y3626399D02*
G01*
X4352600Y3386999D01*
X4410400Y3386999D01*
X4009600Y2486399D02*
G01*
X4009600Y2769899D01*
X4122299Y2882600D01*
X4137500Y79699D02*
G01*
X4137500Y262500D01*
X4070000Y330000D01*
X4474899Y1132399D02*
G01*
X4474899Y1658200D01*
X4748500Y1931900D01*
X4572399Y93299D02*
G01*
X4613999Y51700D01*
X4907700Y51700D01*
X4907700Y51700D02*
G01*
X4907700Y1083899D01*
X4859200Y1132399D01*
X3155048Y340630D02*
G01*
X3215679Y280000D01*
X3630000Y280000D01*
X5243500Y1132500D02*
G01*
X5335600Y1224600D01*
X5335600Y2225000D01*
X5487100Y2376399D01*
X4090500Y1132399D02*
G01*
X4135699Y1087300D01*
X4135699Y529499D01*
X4133800Y527600D01*
X5202100Y93299D02*
G01*
X5202100Y504200D01*
X4987299Y719099D01*
D14*
X1397299Y905000D02*
G01*
X1397299Y1256399D01*
X1137500Y1516300D01*
X1137500Y1631300D01*
D11*
X2393699Y1128499D02*
G01*
X2375799Y1146399D01*
X2375799Y1989699D01*
X2388500Y2002399D01*
X2781099Y2726500D02*
G01*
X2781099Y2631700D01*
X2464399Y2315000D01*
X2252700Y2315000D01*
X2208500Y2270900D01*
X2208500Y1391999D01*
X2235000Y1365500D01*
X3735000Y215000D02*
G01*
X3775000Y175000D01*
X3988397Y175000D01*
X4025000Y211599D01*
X4025000Y349198D01*
X4055801Y380000D01*
X4085600Y380000D01*
X4127100Y421498D01*
X4191602Y421498D01*
X4238000Y93299D02*
G01*
X4238000Y356399D01*
X4218599Y375799D01*
X4731099Y719099D02*
G01*
X4731099Y467600D01*
X4386700Y123200D01*
X3076310Y340630D02*
G01*
X3166940Y250000D01*
X3750000Y250000D01*
X3785000Y225000D01*
X3905000Y225000D01*
X3975600Y295601D01*
X3975600Y359600D01*
X4097002Y481001D01*
X4112402Y481001D01*
X4127700Y496298D01*
X4142201Y496298D01*
X4162500Y516599D01*
X4162500Y727600D01*
X4197798Y762899D01*
X4559102Y762899D01*
X4602997Y719099D01*
X3627489Y340630D02*
G01*
X3693119Y275000D01*
X3790000Y275000D01*
X3810000Y255000D01*
X3900000Y255000D01*
X3954502Y309502D01*
X3954502Y375399D01*
X4013599Y434499D01*
X4093900Y1259198D02*
G01*
X4030497Y1195801D01*
X4030497Y488400D01*
X3930000Y387903D01*
X3930000Y315000D01*
X3895000Y280000D01*
X3845600Y280000D01*
X3784970Y340630D01*
D14*
X3147240Y2896170D02*
G01*
X2990000Y2738930D01*
X2990000Y2355000D01*
X2825000Y2190000D01*
X2655000Y2190000D01*
D15*
X1652600Y182500D02*
G01*
X2025000Y570000D01*
X2035000Y1315000D01*
D11*
X2425000Y1210000D02*
G01*
X2475000Y1260000D01*
X2480000Y1940000D01*
X2488500Y1951900D01*
X2488500Y2002399D01*
X5243500Y719099D02*
G01*
X5243500Y666500D01*
X5541099Y368899D01*
X5586499Y368899D01*
X2704499Y1627699D02*
G01*
X2759142Y1627699D01*
X2930141Y1456700D01*
X2526300Y1128499D02*
G01*
X2501899Y1152899D01*
X2501899Y1727500D01*
X2528500Y1754099D01*
X4970000Y2555000D02*
G01*
X4975000Y2555000D01*
X4975000Y1996199D01*
X4908500Y1929699D01*
X5487100Y3210300D02*
G01*
X5447600Y3210300D01*
X4876099Y2638899D01*
X4593900Y2638899D01*
X3111199Y1156199D01*
X3111199Y1106199D01*
X3075000Y1070000D01*
X2965000Y1070000D01*
X2918199Y1116799D01*
X2918199Y1132399D01*
X5487100Y3492800D02*
G01*
X5565000Y3414899D01*
X5565000Y3198600D01*
X5487100Y3120700D01*
X5487100Y3120700D02*
G01*
X5560000Y3047800D01*
X5560000Y2821399D01*
X5487100Y2748499D01*
X5487100Y2376399D02*
G01*
X5560000Y2449299D01*
X5560000Y2675599D01*
X5487100Y2748499D01*
X5565000Y142800D02*
G01*
X5565000Y142800D01*
X5490000Y265000D01*
X5490000Y304499D01*
X5145799Y648699D01*
X5145799Y683000D01*
X5162700Y699899D01*
X5162700Y890700D01*
X4877100Y1176199D01*
X4581199Y1176199D01*
X4493800Y1088800D01*
X4452399Y1088800D01*
X4251599Y1289699D01*
X4085699Y1289699D01*
X4009399Y1213400D01*
X4009399Y565100D01*
X3863699Y419400D01*
X3155000Y419400D02*
G01*
X3115000Y480000D01*
X2553599Y480000D01*
X2278500Y204899D01*
X4631400Y93299D02*
G01*
X4589700Y135000D01*
X4447700Y135000D01*
X4407399Y94699D01*
X4371800Y94699D01*
X4355000Y111500D01*
X4355000Y326599D01*
X4474899Y446500D01*
X4474899Y719099D01*
X4910000Y50000D02*
G01*
X5045000Y50000D01*
X5083900Y93299D01*
X5143000Y93299D02*
G01*
X5143000Y81999D01*
X5175000Y50000D01*
X5230000Y50000D01*
X5260000Y80000D01*
X5260000Y495100D01*
X5115400Y639699D01*
X5115400Y719099D01*
D12*
X5487100Y3648699D02*
G01*
X5338699Y3648699D01*
X4993199Y3303200D01*
X4993199Y3083099D01*
X4920799Y3010799D01*
X4830000Y3010000D01*
X3046899Y1207800D01*
X3046899Y1132399D01*
D11*
X2095500Y2322300D02*
G01*
X2117299Y2322300D01*
X2208500Y2413499D01*
X2208500Y2518499D01*
X2280600Y2590599D01*
X2306599Y2590599D01*
X1831000Y2956100D02*
G01*
X2031099Y2755999D01*
X2031099Y2373899D01*
X2082600Y2322300D01*
X2095500Y2322300D01*
D25*
G01*
X5202129Y93260D03*
G01*
X5143029Y93260D03*
G01*
X5083930Y93260D03*
G01*
X5024930Y93260D03*
D26*
G01*
X4987299Y719059D03*
G01*
X4987299Y1132449D03*
G01*
X4602969Y719059D03*
G01*
X4602969Y1132449D03*
G01*
X5115420Y719059D03*
G01*
X5115420Y1132449D03*
G01*
X5243530Y719070D03*
G01*
X5243530Y1132460D03*
G36*
X2110799Y3261205D02*
G01*
X2110799Y3340005D01*
X2209200Y3340005D01*
X2209200Y3261205D01*
G37*
G36*
X1276886Y1582087D02*
G01*
X1198086Y1582087D01*
X1198086Y1680488D01*
X1276886Y1680488D01*
G37*
D29*
G01*
X1940000Y3400599D03*
G01*
X1137479Y1416289D03*
D30*
G01*
X2580000Y2800000D03*
D31*
G01*
X2480000Y2800000D03*
G01*
X2380000Y2800000D03*
G01*
X2280000Y2800000D03*
G01*
X2280000Y2500000D03*
G01*
X2380000Y2500000D03*
G01*
X2480000Y2500000D03*
G01*
X2580000Y2500000D03*
G36*
X1627060Y1706691D02*
G01*
X1697925Y1706691D01*
X1697925Y1635824D01*
X1627060Y1635824D01*
G37*
G01*
X1762489Y1671260D03*
G01*
X1862489Y1671260D03*
G01*
X1962489Y1671260D03*
G01*
X1962489Y1971260D03*
G01*
X1862489Y1971260D03*
G01*
X1762489Y1971260D03*
G01*
X1662489Y1971260D03*
G36*
X3542021Y3540005D02*
G01*
X3542021Y3461206D01*
X3443621Y3461206D01*
X3443621Y3540005D01*
G37*
G36*
X4442021Y3540005D02*
G01*
X4442021Y3461206D01*
X4343621Y3461206D01*
X4343621Y3540005D01*
G37*
G01*
X1596040Y2593899D03*
G01*
X1596040Y2956100D03*
G01*
X2278530Y567109D03*
G01*
X2278530Y204909D03*
G01*
X1831040Y2593899D03*
G01*
X1831040Y2956100D03*
G01*
X1661170Y723899D03*
G01*
X1661170Y1086100D03*
G01*
X1925000Y723899D03*
G01*
X1925000Y1086100D03*
G01*
X2578530Y567109D03*
G01*
X2578530Y204909D03*
G01*
X2728530Y567109D03*
G01*
X2728530Y204909D03*
G01*
X2128530Y567109D03*
G01*
X2128530Y204909D03*
G01*
X5098530Y1936399D03*
G01*
X5098530Y1574200D03*
G01*
X4748530Y1569659D03*
G01*
X4748530Y1931860D03*
G01*
X4908530Y2291860D03*
G01*
X4908530Y1929659D03*
G01*
X4868530Y2951860D03*
G01*
X4868530Y2589659D03*
G01*
X4867430Y3070760D03*
G01*
X5229629Y3070760D03*
G01*
X5228530Y2281399D03*
G01*
X5228530Y1919200D03*
G01*
X2428530Y567109D03*
G01*
X2428530Y204909D03*
G36*
X575864Y285785D02*
G01*
X678225Y285785D01*
X678225Y183422D01*
X575864Y183422D01*
G37*
D33*
G01*
X782960Y234600D03*
D34*
G01*
X3863710Y340630D03*
G01*
X3863710Y419369D03*
G01*
X3784970Y340630D03*
G01*
X3784970Y419369D03*
G01*
X3706229Y340630D03*
G01*
X3706229Y419369D03*
G01*
X3627489Y340630D03*
G01*
X3627489Y419369D03*
G01*
X3548750Y340630D03*
G01*
X3548750Y419369D03*
G01*
X3470010Y340630D03*
G01*
X3470010Y419369D03*
G01*
X3391270Y340630D03*
G01*
X3391270Y419369D03*
G01*
X3312529Y340630D03*
G01*
X3312529Y419369D03*
G01*
X3233789Y340630D03*
G01*
X3233789Y419369D03*
G01*
X3155050Y340630D03*
G01*
X3155050Y419369D03*
G01*
X3076310Y340630D03*
G36*
X3046770Y448897D02*
G01*
X3105826Y448897D01*
X3105826Y389841D01*
X3046770Y389841D01*
G37*
D25*
G01*
X4749629Y93260D03*
G01*
X4690529Y93260D03*
G01*
X4631430Y93260D03*
G01*
X4572430Y93260D03*
D26*
G01*
X4731080Y719059D03*
G01*
X4731080Y1132449D03*
G01*
X4859200Y719059D03*
G01*
X4859200Y1132449D03*
G01*
X3834309Y719059D03*
G01*
X3834309Y1132449D03*
G01*
X4474859Y719059D03*
G01*
X4474859Y1132449D03*
D25*
G01*
X4297129Y93260D03*
G01*
X4238029Y93260D03*
G01*
X4178930Y93260D03*
G01*
X4119930Y93260D03*
D26*
G01*
X3962420Y719059D03*
G01*
X3962420Y1132449D03*
G01*
X4218639Y719059D03*
G01*
X4218639Y1132449D03*
G01*
X4090529Y719059D03*
G01*
X4090529Y1132449D03*
G01*
X4346750Y719059D03*
G01*
X4346750Y1132449D03*
D36*
G01*
X3046869Y1132440D03*
G01*
X3046869Y719059D03*
G01*
X2918209Y1132440D03*
G01*
X2918209Y719059D03*
G01*
X3175529Y1132440D03*
G01*
X3175529Y719059D03*
G01*
X2789549Y1132440D03*
G01*
X2789549Y719059D03*
D37*
G01*
X2095000Y2390160D03*
G01*
X2095000Y2909839D03*
G01*
X2054840Y1495000D03*
G01*
X1535159Y1495000D03*
D38*
G01*
X897330Y2971849D03*
G01*
X897330Y2578150D03*
G01*
X1298930Y2578150D03*
G01*
X1298930Y2971849D03*
G01*
X1397330Y2775050D03*
G01*
X897330Y1101849D03*
G01*
X897330Y708150D03*
G01*
X1298930Y708150D03*
G01*
X1298930Y1101849D03*
G01*
X1397330Y905050D03*
D29*
G01*
X3712820Y3400599D03*
G01*
X4612820Y3400599D03*
D30*
G01*
X2358530Y2250760D03*
D31*
G01*
X2258530Y2250760D03*
G01*
X2158530Y2250760D03*
D30*
G01*
X2488530Y2002420D03*
D31*
G01*
X2388530Y2002420D03*
G01*
X2288530Y2002420D03*
D30*
G01*
X2628530Y1754090D03*
D31*
G01*
X2528530Y1754090D03*
G01*
X2428530Y1754090D03*
D30*
G01*
X2753530Y1505760D03*
D31*
G01*
X2653530Y1505760D03*
G01*
X2553530Y1505760D03*
D30*
G01*
X2235000Y1315000D03*
D31*
G01*
X2135000Y1315000D03*
G01*
X2035000Y1315000D03*
D39*
G01*
X3199549Y3640000D03*
G01*
X3140450Y3640000D03*
G01*
X3147240Y2896170D03*
G01*
X3206340Y2896170D03*
G01*
X4104729Y2896170D03*
G01*
X4163829Y2896170D03*
D40*
G01*
X4174369Y3640000D03*
G01*
X4095630Y3640000D03*
D26*
G01*
X3703959Y723000D03*
G01*
X3703959Y1128519D03*
G01*
X3571360Y723000D03*
G01*
X3571360Y1128519D03*
G01*
X3438760Y723000D03*
G01*
X3438760Y1128519D03*
G01*
X3306170Y1128519D03*
G01*
X3306170Y723000D03*
G01*
X2261130Y1128519D03*
G01*
X2261130Y723000D03*
G01*
X2393720Y1128519D03*
G01*
X2393720Y723000D03*
G01*
X2526319Y723000D03*
G01*
X2526319Y1128519D03*
G01*
X2658919Y723000D03*
G01*
X2658919Y1128519D03*
G01*
X2128530Y723000D03*
G01*
X2128530Y1128519D03*
D37*
G01*
X1552659Y2166260D03*
G01*
X2072340Y2166260D03*
G01*
X2780000Y2909839D03*
G01*
X2780000Y2390160D03*
D32*
G01*
X3380780Y2500000D03*
D33*
G01*
X3224859Y2500000D03*
D32*
G01*
X4147960Y2500000D03*
D33*
G01*
X3992039Y2500000D03*
D32*
G01*
X1635000Y351990D03*
D33*
G01*
X1635000Y196069D03*
D32*
G01*
X5565000Y142800D03*
D33*
G01*
X5565000Y298719D03*
D32*
G01*
X5565000Y514920D03*
D33*
G01*
X5565000Y670839D03*
D32*
G01*
X5565000Y1259169D03*
D33*
G01*
X5565000Y1415079D03*
D32*
G01*
X5565000Y887040D03*
D33*
G01*
X5565000Y1042950D03*
D32*
G01*
X5487049Y2532350D03*
D33*
G01*
X5487049Y2376430D03*
D32*
G01*
X5487049Y2904470D03*
D33*
G01*
X5487049Y2748550D03*
D32*
G01*
X5487049Y3276590D03*
D33*
G01*
X5487049Y3120670D03*
D32*
G01*
X5487049Y3648710D03*
D33*
G01*
X5487049Y3492800D03*
D32*
G01*
X5487049Y2160230D03*
D33*
G01*
X5487049Y2004310D03*
D32*
G01*
X5487049Y1788099D03*
D33*
G01*
X5487049Y1632190D03*
D41*
G01*
X2530000Y3545909D03*
D42*
G01*
X2530000Y3389989D03*
G01*
X2530000Y3234090D03*
D41*
G01*
X1293389Y1960000D03*
D42*
G01*
X1137470Y1960000D03*
G01*
X981570Y1960000D03*
D31*
G01*
X5208140Y3420760D03*
G01*
X4908930Y3420760D03*
G36*
X1007897Y3611181D02*
G01*
X1110259Y3611181D01*
X1110259Y3508818D01*
X1007897Y3508818D01*
G37*
D33*
G01*
X1214989Y3560010D03*
D32*
G01*
X199879Y2335200D03*
D33*
G01*
X199879Y2491109D03*
D32*
G01*
X199879Y717040D03*
D33*
G01*
X199890Y872950D03*
D32*
G01*
X199879Y1893890D03*
D33*
G01*
X199879Y2049800D03*
D43*
G01*
X170749Y3077159D03*
G01*
X170749Y3214949D03*
G01*
X170749Y1459000D03*
G01*
X170749Y1596790D03*
D32*
G01*
X199879Y3512040D03*
D33*
G01*
X199879Y3667950D03*
D12*
G01*
X5172600Y659400D03*
G01*
X3711099Y2054000D03*
G01*
X4297100Y379099D03*
G01*
X4136400Y375799D03*
G01*
X4859200Y379600D03*
G01*
X4386700Y123200D03*
G01*
X4138500Y470199D03*
G01*
X3989200Y214000D03*
G01*
X3735000Y215000D03*
G01*
X4191599Y421500D03*
G01*
X4190600Y650999D03*
G01*
X4013599Y434499D03*
G01*
X4093900Y1259200D03*
G01*
X2781099Y2726500D03*
G01*
X2425000Y1210000D03*
G01*
X2005000Y2453800D03*
G01*
X1821800Y1874400D03*
G01*
X4070000Y330000D03*
G01*
X4970000Y2555000D03*
G01*
X2306599Y2590599D03*
G01*
X3630000Y280000D03*
G01*
X5586499Y368899D03*
G01*
X4133800Y527600D03*
D14*
G01*
X2655000Y2190000D03*
D12*
G01*
X2704499Y1627699D03*
G01*
X2930140Y1456700D03*
D29*
X2150158Y3400599D02*
G01*
X2169841Y3400599D01*
X2150158Y3500599D02*
G01*
X2169841Y3500599D01*
X1137489Y1621446D02*
G01*
X1137489Y1641131D01*
X1037489Y1621446D02*
G01*
X1037489Y1641131D01*
X3502663Y3400610D02*
G01*
X3482978Y3400610D01*
X3502663Y3300610D02*
G01*
X3482978Y3300610D01*
X4402663Y3400610D02*
G01*
X4382978Y3400610D01*
X4402663Y3300610D02*
G01*
X4382978Y3300610D01*
X427040Y328701D02*
G01*
X427040Y226338D01*
X182959Y226338D02*
G01*
X182959Y328701D01*
X360120Y92469D02*
G01*
X257759Y92469D01*
M02*
